<svg width="4394" height="2734" fill="none" xmlns="http://www.w3.org/2000/svg"><path d="M740.299 420.928l-7.72-2.558c-.81-.261-1.266-1.229-1.038-2.154l17.275-67.964c.227-.925 1.075-1.445 1.885-1.185l7.72 2.558c.81.26 1.266 1.229 1.038 2.154l-17.275 67.964c-.24.925-1.075 1.46-1.885 1.185zm-14.427-16.218l5.505-6.706c.582-.709.544-1.836-.102-2.487l-11.465-11.52 11.465-11.52c.646-.65.697-1.777.102-2.486l-5.505-6.706c-.57-.694-1.532-.738-2.152-.073l-18.236 19.513c-.645.68-.645 1.851 0 2.53l18.236 19.528c.62.664 1.582.636 2.152-.073zm41.408.087l18.236-19.528c.645-.679.645-1.85 0-2.529l-18.236-19.542c-.608-.651-1.57-.622-2.152.072l-5.505 6.707c-.582.708-.544 1.836.102 2.486l11.465 11.534-11.465 11.52c-.646.651-.697 1.778-.102 2.487l5.505 6.706c.57.709 1.532.737 2.152.087z" fill="#C8C8C8"/><path fill="#4B5070" d="M3315 223h1079v1948H3315z"/><path fill="#9494B8" d="M0 2171h4394v515H0z"/><g filter="url(#filter0_d)"><path d="M3796.61 2622h-5.1v-32.48c-1.23 1.17-2.84 2.34-4.84 3.51-1.98 1.17-3.77 2.05-5.35 2.63v-4.93c2.85-1.34 5.34-2.96 7.47-4.87 2.14-1.9 3.65-3.75 4.53-5.55h3.29V2622zm13.08-20.48c0-4.9.5-8.85 1.5-11.83 1.02-3.01 2.52-5.32 4.51-6.94 2-1.63 4.51-2.44 7.53-2.44 2.23 0 4.18.46 5.86 1.36 1.68.89 3.07 2.18 4.16 3.88 1.1 1.68 1.96 3.74 2.58 6.18.63 2.41.94 5.68.94 9.79 0 4.88-.5 8.81-1.5 11.81-1.01 2.99-2.51 5.3-4.51 6.94-1.98 1.63-4.49 2.44-7.53 2.44-4 0-7.15-1.44-9.43-4.31-2.74-3.45-4.11-9.08-4.11-16.88zm5.24 0c0 6.82.79 11.36 2.38 13.63 1.61 2.24 3.58 3.37 5.92 3.37s4.3-1.14 5.89-3.4c1.6-2.27 2.41-6.8 2.41-13.6 0-6.83-.81-11.37-2.41-13.62-1.59-2.24-3.57-3.37-5.95-3.37-2.34 0-4.21.99-5.6 2.98-1.76 2.53-2.64 7.2-2.64 14.01zm29.88-3.79v-5.81h5.81v5.81h-5.81zm0 24.27v-5.81h5.81v5.81h-5.81zm13.31-20.48c0-4.9.5-8.85 1.5-11.83 1.02-3.01 2.52-5.32 4.5-6.94 2.01-1.63 4.52-2.44 7.54-2.44 2.23 0 4.18.46 5.86 1.36 1.68.89 3.07 2.18 4.16 3.88 1.1 1.68 1.96 3.74 2.58 6.18.62 2.41.93 5.68.93 9.79 0 4.88-.5 8.81-1.5 11.81-1 2.99-2.5 5.3-4.5 6.94-1.98 1.63-4.49 2.44-7.53 2.44-4.01 0-7.15-1.44-9.43-4.31-2.74-3.45-4.11-9.08-4.11-16.88zm5.24 0c0 6.82.79 11.36 2.38 13.63 1.6 2.24 3.58 3.37 5.92 3.37s4.3-1.14 5.89-3.4c1.6-2.27 2.41-6.8 2.41-13.6 0-6.83-.81-11.37-2.41-13.62-1.59-2.24-3.57-3.37-5.95-3.37-2.34 0-4.21.99-5.61 2.98-1.75 2.53-2.63 7.2-2.63 14.01zm27.05 0c0-4.9.5-8.85 1.5-11.83 1.02-3.01 2.52-5.32 4.5-6.94 2-1.63 4.51-2.44 7.53-2.44 2.23 0 4.18.46 5.86 1.36 1.69.89 3.07 2.18 4.17 3.88 1.09 1.68 1.95 3.74 2.57 6.18.63 2.41.94 5.68.94 9.79 0 4.88-.5 8.81-1.5 11.81-1 2.99-2.5 5.3-4.5 6.94-1.99 1.63-4.5 2.44-7.54 2.44-4 0-7.14-1.44-9.43-4.31-2.74-3.45-4.1-9.08-4.1-16.88zm5.23 0c0 6.82.8 11.36 2.38 13.63 1.61 2.24 3.58 3.37 5.92 3.37s4.31-1.14 5.89-3.4c1.61-2.27 2.41-6.8 2.41-13.6 0-6.83-.8-11.37-2.41-13.62-1.58-2.24-3.57-3.37-5.94-3.37-2.35 0-4.21.99-5.61 2.98-1.76 2.53-2.64 7.2-2.64 14.01z" fill="#DBDBEF"/></g><path d="M2189 2417h-25v90h25v-90zM2234 2417h-25v90h25v-90z" fill="#3B4164"/><g opacity=".97" filter="url(#filter1_f)" fill="#393F62"><path opacity=".97" d="M2430 2438v62l51-31-51-31zM2481 2500h11v-62h-11v62z"/></g><g opacity=".97" filter="url(#filter2_f)" fill="#393F62"><path opacity=".97" d="M1969 2438v62l-51-31 51-31zM1918 2500h-11v-62h11v62z"/></g><path d="M4189 2298.76l-3.24 3.24-18.04-18.02v13.5l-18.18-16.78h-11.47v-22.62h3.78l-20.85-20.84 3.24-3.24 24.1 24.08h1.23l18.15-16.75v36.16l21.28 21.27z" fill="#515880"/><path d="M3547.12 1340c.8 0 1.6-.34 2.2-1.03l8.77-9.94c1.21-1.38 1.21-3.61 0-4.99-1.22-1.39-3.2-1.39-4.41 0l-8.77 9.93c-1.21 1.38-1.21 3.62 0 5 .61.69 1.41 1.03 2.21 1.03zM3553.09 1375.21c1.21-1.06 1.21-2.77 0-3.82l-8.77-7.6c-1.21-1.05-3.19-1.05-4.41 0-1.21 1.06-1.21 2.77 0 3.82l8.77 7.6c.61.53 1.4.79 2.2.79.8 0 1.6-.26 2.21-.79zM3588.68 1363.79l-8.77 7.6c-1.21 1.05-1.21 2.76 0 3.82.61.53 1.41.79 2.21.79s1.59-.26 2.2-.79l8.77-7.6c1.22-1.05 1.21-2.76 0-3.82-1.22-1.05-3.2-1.05-4.41 0zM3574.91 1324.04c-1.21 1.38-1.21 3.61 0 5l8.77 9.93c.61.69 1.4 1.03 2.2 1.03.8 0 1.6-.34 2.21-1.03 1.21-1.38 1.21-3.62 0-5l-8.77-9.94c-1.22-1.37-3.19-1.38-4.41.01zM3566.5 1307c5.25 0 9.5-4.7 9.5-10.5s-4.25-10.5-9.5-10.5-9.5 4.7-9.5 10.5 4.25 10.5 9.5 10.5z" fill="#959DD3"/><path d="M3553.37 1320h26.28c3.61 0 6.47-2.29 6.35-5.08 0 0-.05-1.13-.63-2.96l.16.55c-1.19-4.54-3.97-5.7-8.67-7.51-2.41 2.38-6.15 3.92-10.35 3.92-4.2 0-7.94-1.54-10.35-3.92-4.7 1.81-7.48 2.97-8.67 7.51-.46 1.78-.49 2.41-.49 2.41-.11 2.79 2.76 5.08 6.37 5.08zM3566.5 1381c5.25 0 9.5-4.03 9.5-9s-4.25-9-9.5-9-9.5 4.03-9.5 9 4.25 9 9.5 9z" fill="#959DD3"/><path d="M3585.53 1387.01c-1.19-6.05-3.97-7.6-8.67-10.01-2.41 3.18-6.15 5.23-10.35 5.23-4.2 0-7.94-2.05-10.35-5.23-4.7 2.41-7.48 3.96-8.67 10.01-.46 2.38-.49 3.21-.49 3.21-.11 3.73 2.76 6.78 6.37 6.78h26.28c3.61 0 6.47-3.05 6.35-6.78 0 0-.05-1.5-.63-3.94l.16.73zM3529.5 1343c5.25 0 9.5-4.7 9.5-10.5s-4.25-10.5-9.5-10.5-9.5 4.7-9.5 10.5 4.25 10.5 9.5 10.5z" fill="#959DD3"/><path d="M3546 1353.56s-.05-1.42-.56-3.74l.14.69c-1.07-5.75-3.57-7.22-7.78-9.51-2.16 3.02-5.52 4.97-9.29 4.97-3.77 0-7.12-1.95-9.29-4.97-4.21 2.29-6.71 3.76-7.78 9.51-.42 2.26-.44 3.05-.44 3.05-.1 3.54 2.48 6.44 5.72 6.44h23.58c3.24 0 5.81-2.9 5.7-6.44zM3603.5 1343c5.25 0 9.5-4.7 9.5-10.5s-4.25-10.5-9.5-10.5-9.5 4.7-9.5 10.5 4.25 10.5 9.5 10.5z" fill="#959DD3"/><path d="M3621.44 1349.82l.14.69c-1.07-5.75-3.57-7.22-7.79-9.51-2.15 3.02-5.51 4.97-9.28 4.97-3.77 0-7.13-1.95-9.29-4.97-4.21 2.29-6.71 3.76-7.78 9.51-.41 2.26-.44 3.05-.44 3.05-.1 3.54 2.48 6.44 5.72 6.44h23.58c3.24 0 5.8-2.9 5.7-6.44-.01 0-.05-1.43-.56-3.74zM3896.77 1318.18c4.84.75 8.96 3.12 11.99 7.11 2.9 3.74 4.35 8.1 4.23 12.84-.12 3.37-.48 6.73-1.33 9.97-1.94 7.23-5.57 13.59-10.89 18.58-3.27 2.99-7.14 3.99-11.5 3.37-1.82-.25-3.51-.88-5.33-1.38-.36-.12-.72-.12-1.09 0-1.33.38-2.66.75-3.99 1-4.6 1.12-8.72.25-12.47-2.87-1.45-1.12-2.54-2.49-3.75-3.99-3.51-4.23-5.93-9.1-7.51-14.46-.84-2.86-1.33-5.86-1.45-8.85-.12-1.87-.12-3.61.12-5.48.73-4.62 2.79-8.48 6.18-11.47 4.23-3.87 9.32-5.24 14.88-4.87 2.06.13 4.12.5 6.18 1 .36.13.48 0 .48-.37 0-.75-.12-1.62-.24-2.37-.73-3.12-2.42-5.61-5.21-7.23-.6-.38-.6-.38-.24-1 .37-.75.73-1.5 1.09-2.24.12-.38.36-.38.61-.25.48.37.97.62 1.45.99 1.94 1.38 3.39 3.12 4.48 5.24.24.37.24.37.48 0 .37-.62.85-1.12 1.33-1.62 3.03-3.24 6.78-4.86 11.14-4.99 2.54-.12 4.84.75 7.26 1.62.24.13.24.25.12.5-1.21 1.87-2.42 3.62-4.11 5.11-2.79 2.37-6.05 3.74-9.81 3.87-1.69 0-3.26-.25-4.84-.75-.24-.12-.36-.12-.36.25.24 1 .36 2 .24 2.87 0 .25.12.25.36.25 2.67-.75 5.45-1.12 8.72-1.12.73.49 1.69.62 2.78.74zm-25.78 7.11c-2.78.37-5.08 1.62-7.02 3.74-2.06 2.24-3.15 4.86-3.27 7.98 0 .75.12 1.49.73 1.99.6.5 1.21.5 1.93.13.61-.38.97-.88.97-1.62 0-1 .12-1.87.49-2.75 1.21-3.49 4.23-5.73 7.99-5.86.96 0 1.57-.62 1.69-1.49.12-1-.36-1.87-1.21-2.12-.36-.13-.61 0-.97-.13-.48 0-.85.13-1.33.13zm-31.23 42.39v-.5c0-3.12-2.42-5.61-5.45-5.61h-30.86c-3.03 0-5.45 2.49-5.45 5.61v.5c0 3.11 2.42 5.61 5.45 5.61h30.98c2.91-.13 5.33-2.5 5.33-5.61zm-7.02 13.71v-.5c0-3.12-2.42-5.61-5.45-5.61h-16.94c-3.03 0-5.45 2.49-5.45 5.61v.5c0 3.12 2.42 5.61 5.45 5.61h16.94c3.03 0 5.45-2.49 5.45-5.61zm-34.74-69.07v.5c0 3.12 2.42 5.61 5.45 5.61h30.98c3.03 0 5.45-2.49 5.45-5.61v-.5c0-3.11-2.42-5.61-5.45-5.61h-30.98c-3.03.13-5.45 2.5-5.45 5.61zm7.02-13.71v.5c0 3.12 2.42 5.61 5.45 5.61h16.94c3.03 0 5.45-2.49 5.45-5.61v-.5c0-3.12-2.42-5.61-5.45-5.61h-16.94c-3.03 0-5.45 2.49-5.45 5.61zm19.25 55.23v-27.68c0-2.74-2.18-4.98-4.84-4.98h-1.09c-2.67 0-4.85 2.24-4.85 4.98v27.55c0 2.75 2.18 4.99 4.85 4.99h1.09c2.66.12 4.84-2.12 4.84-4.86zM4159.5 1309c5.25 0 9.5-4.03 9.5-9s-4.25-9-9.5-9-9.5 4.03-9.5 9 4.25 9 9.5 9z" fill="#959DD3"/><path d="M4166.17 1351.55l4.63 3.87 8.89-10.64-.97-.84c-.25-.25-.37-.61-.12-.97l2.56-3.02c.24-.25.6-.37.97-.13l.97.85 8.9-10.64-4.63-3.63c-.37-.36-.98-.24-1.22.12l-5.48 6.53-1.22-.96c-1.58-1.33-4.02-1.09-5.36.48l-.49.6h-.12l-15.72-3.14s-1.1-14.15-1.34-16.08c-.12-.73-.24-1.69-.49-2.66-3.04-.97-5.6-3.15-6.82-6.05-.49-.12-.98-.24-1.34-.24-1.34 0-18.16.48-18.16.48-1.58-.12-3.17.85-3.65 2.3l-4.39 16.45c-.61 1.81-.49 2.9 1.71 3.14 2.19.24 2.55-.6 3.04-1.93l4.27-13.79h8.28c-1.34 3.99-4.26 11.97-6.58 15.12-1.95 2.66-5.72 6.28-6.94 9.43l-13.41 12.09c-.61.6-1.58.6-2.19.12l-14.62-11.37c-2.19-2.05-4.27-2.66-6.09-.6-1.83 2.05-1.1 4.84 1.09 6.89l16.82 15.6c1.09.97 2.44 1.45 3.78 1.45 1.21 0 2.43-.36 3.53-1.21l17.79-14.39 16.33 14.15c.48.36.85.85 1.09 1.45l9.39 21.04c.97 1.94 2.92 4.48 5.72 3.27 2.81-1.09 2.68-3.03 1.59-6.53l-7.56-23.7c-.24-.61-.73-1.09-1.22-1.58l-14.37-13.06c3.29-4.11 6.94-9.19 8.4-11.24l.86 4.84c.24 1.45 1.34 2.54 2.8 2.66 0 0 9.5.96 14.62 1.57-1.1 1.57-.85 3.75.61 5.08l1.22.96-5.48 6.65c-.37.37-.25.97.12 1.21zm5.6-12.33l.98-1.09h.12c1.58 0 2.19-.36 2.56-2.05.12-.49.12-.85.12-1.21l.61-.73c.49-.48 1.22-.6 1.71-.12l1.21.97-5.85 6.89-1.21-.97c-.49-.48-.61-1.21-.25-1.69z" fill="#959DD3"/><path d="M4203.66 1339.69l-10.47-8.69-8.89 10.62.97.84c.25.24.37.6.12.97l-2.55 3.01c-.25.12-.73.12-.98-.12l-.97-.84-8.89 10.61 10.47 8.69c.37.36.98.24 1.22-.12l20.09-23.77c.36-.36.24-.84-.12-1.2z" fill="#959DD3"/><path opacity=".97" d="M4151.91 1107.44c-11.76-2.02-22.46 3.15-23.91 11.56l.83-.38 24.17-11-1.09-.18z" fill="#959DD3"/><path opacity=".97" d="M4153.05 1104.38c-9.85-7.55-19.95-11.38-30.04-11.38-17.88 0-30.62 12.13-34.83 20.28l-.18.36 37.04 6.31.29.05.05-.29c1.51-8.67 11.2-15.21 22.55-15.21 1.63 0 3.28.14 4.89.41l1.18.2-.95-.73zM4195.06 1034l-43.91 65.98-.15.22 4.47 3.8 44.34-67.5.19-.3-4.94-2.2z" fill="#959DD3"/><path opacity=".97" d="M4192.64 1032.89c-.05-.02-5.33-1.89-12.52-1.89-4.22 0-8.27.64-12.03 1.89-12.6 4.21-44.41 54.43-45.76 56.57l-.33.52.61-.07s.71-.07 1.92-.07c4.2 0 14.98.87 24.2 8.94l.25.22 44.02-65.98-.36-.13zM4195.49 1013l-12.49 15.39 7.5.61 8.22-11.01 11.28-.98V1013h-14.51z" fill="#959DD3"/><path fill-rule="evenodd" clip-rule="evenodd" d="M3800.68 1058.21h110.64c.92 0 1.68.75 1.68 1.68v6.78c0 .91-.75 1.67-1.67 1.67h-3.36v48.96c0 .95-.76 1.7-1.69 1.7h-3.32c-.95 0-1.7-.76-1.7-1.69v-11.82h-38.55c-.93 0-1.68-.75-1.68-1.68v-11.83c0-.92.75-1.68 1.68-1.68h38.55v-3.38h-38.55c-.93 0-1.68-.75-1.68-1.68v-11.84c0-.91.75-1.68 1.68-1.68h38.55v-3.38h-90.52v48.97c0 .93-.76 1.69-1.7 1.69h-3.32c-.95 0-1.69-.75-1.69-1.68v-48.98h-3.36c-.93 0-1.67-.74-1.67-1.67v-6.78c0-.92.75-1.68 1.68-1.68zm46.94-4.95c0 .94-.76 1.68-1.69 1.68h-3.33c-.94 0-1.69-.75-1.69-1.68v-6.87h-16.76a3.37 3.37 0 0 1-3.36-3.37v-23.64c0-1.87 1.51-3.38 3.36-3.38h40.23c1.85 0 3.36 1.51 3.36 3.38v23.64a3.37 3.37 0 0 1-3.36 3.37h-16.76v6.87zm45.26-.11c0 .93-.76 1.69-1.67 1.69h-13.42c-.93 0-1.67-.77-1.67-1.69 0-4.67 3.75-8.45 8.38-8.45 4.63 0 8.38 3.78 8.38 8.45z" fill="#959DD3"/><path fill="#9FA3D3" d="M0 9h1072v214H0z"/><path fill="#767BAE" d="M1072 9h3322v214H1072z"/><path fill="#EFF1F9" d="M0 438h3315v1733H0z"/><rect x="232" y="673" width="714" height="443" rx="25" fill="#fff"/><rect x="235" y="673" width="708" height="233" rx="21" fill="#E6E8F4"/><path fill="#E6E8F4" d="M232 838h714v68H232z"/><path d="M655.462 844.312l-8.583-18.36c1.376-.213 2.449-1.346 2.449-2.777v-93.312a2.867 2.867 0 0 0-2.876-2.863h-79.827a2.867 2.867 0 0 0-2.876 2.863v16.131l-31.838 11.29a2.864 2.864 0 0 0-1.745 3.656l31.429 87.907a2.858 2.858 0 0 0 1.477 1.627c.388.186.808.278 1.232.278.326 0 .652-.057.966-.165l63.271-22.436 11.006 23.538a5.758 5.758 0 0 0 7.646 2.773l5.485-2.543a5.718 5.718 0 0 0 2.784-7.607zM569.5 732.727h74.077v86.162l-9.833-21.036a5.8 5.8 0 0 0-.745-1.188l-7.854-9.659a5.762 5.762 0 0 0-4.473-2.122 5.76 5.76 0 0 0-2.424.534 5.724 5.724 0 0 0-3.221 6.278l2.365 12.199c.089.461.236.909.432 1.331l7.053 15.086H569.5v-87.585zm52.976 67.186l-1.803-9.302 5.988 7.364-4.185 1.938zm-85.925-38.194l27.198-9.643v71.101a2.867 2.867 0 0 0 2.876 2.863h50.719l-51.295 18.191-29.498-82.512zm108.211 87.553l-20.511-43.867 5.488-2.536.003-.003 20.506 43.863-5.486 2.543z" fill="#959DD3"/><path d="M254 128.002V87.667C254 84 250.999 81 247.334 81h-46.667c-3.665 0-6.667 3-6.667 6.667v60c0 3.665 3.002 6.666 6.667 6.666h36.745c3.04 4.027 7.822 6.667 13.255 6.667 9.202 0 16.667-7.464 16.667-16.667 0-8.062-5.729-14.784-13.334-16.331zm-6.666 0C239.73 129.549 234 136.271 234 144.333a16.5 16.5 0 0 0 .339 3.334h-33.672v-60h46.667v40.335zm13.333 18.831h-12.5v-12.499h5v7.499h7.5v5z" fill="#E2E5EF"/><path d="M234 121h-26.666v6.666H234V121zM227.334 134.334h-20V141h20v-6.666zM240.667 107.667h-33.333v6.667h33.333v-6.667zM234 94.333h-26.666V101H234v-6.667z" fill="#E2E5EF"/><circle cx="836" cy="906" r="56" fill="#8086B5"/><path d="M830 880h-15v55h15v-55zM857 880h-15v55h15v-55z" fill="#fff"/><g filter="url(#filter3_d)"><path d="M349.853 138V96.962h-15.33v-5.49h36.88v5.49H356.01V138h-6.157zm24.819-22.661c0-7.723 2.074-13.764 6.221-18.123 4.147-4.38 9.5-6.57 16.06-6.57 4.295 0 8.167 1.027 11.616 3.08 3.449 2.052 6.072 4.918 7.871 8.6 1.82 3.661 2.729 7.818 2.729 12.473 0 4.719-.952 8.94-2.856 12.664s-4.602 6.549-8.093 8.474c-3.491 1.904-7.258 2.856-11.299 2.856-4.38 0-8.294-1.057-11.743-3.173s-6.062-5.004-7.84-8.665a26.26 26.26 0 0 1-2.666-11.616zm6.348.095c0 5.607 1.502 10.029 4.507 13.267 3.026 3.216 6.813 4.824 11.362 4.824 4.634 0 8.443-1.629 11.426-4.888 3.004-3.258 4.507-7.881 4.507-13.869 0-3.788-.646-7.089-1.936-9.903-1.27-2.835-3.142-5.025-5.618-6.57-2.454-1.565-5.216-2.348-8.284-2.348-4.358 0-8.114 1.502-11.267 4.507-3.131 2.983-4.697 7.977-4.697 14.98zM427.136 138V91.472h16.028c3.618 0 6.379.222 8.283.666 2.666.614 4.941 1.725 6.824 3.333 2.454 2.073 4.285 4.729 5.491 7.966 1.227 3.216 1.841 6.898 1.841 11.045 0 3.533-.413 6.665-1.238 9.394-.825 2.73-1.883 4.994-3.174 6.792-1.291 1.778-2.708 3.185-4.253 4.222-1.523 1.015-3.375 1.788-5.554 2.317-2.158.529-4.645.793-7.459.793h-16.789zm6.157-5.491h9.934c3.068 0 5.47-.285 7.205-.857 1.756-.571 3.152-1.375 4.189-2.412 1.46-1.46 2.592-3.417 3.396-5.871.825-2.476 1.238-5.47 1.238-8.982 0-4.867-.804-8.601-2.412-11.204-1.587-2.624-3.523-4.38-5.808-5.268-1.651-.635-4.306-.953-7.967-.953h-9.775v35.547zm38.943-17.17c0-7.723 2.073-13.764 6.221-18.123 4.147-4.38 9.5-6.57 16.059-6.57 4.295 0 8.167 1.027 11.616 3.08 3.449 2.052 6.073 4.918 7.871 8.6 1.82 3.661 2.73 7.818 2.73 12.473 0 4.719-.952 8.94-2.857 12.664-1.904 3.724-4.602 6.549-8.093 8.474-3.491 1.904-7.257 2.856-11.299 2.856-4.38 0-8.294-1.057-11.743-3.173s-6.062-5.004-7.839-8.665a26.26 26.26 0 0 1-2.666-11.616zm6.347.095c0 5.607 1.503 10.029 4.507 13.267 3.026 3.216 6.813 4.824 11.363 4.824 4.633 0 8.442-1.629 11.425-4.888 3.005-3.258 4.507-7.881 4.507-13.869 0-3.788-.645-7.089-1.936-9.903-1.269-2.835-3.142-5.025-5.617-6.57-2.455-1.565-5.216-2.348-8.284-2.348-4.359 0-8.115 1.502-11.267 4.507-3.132 2.983-4.698 7.977-4.698 14.98zM542.727 138V91.472h6.315l24.439 36.53v-36.53h5.903V138h-6.316l-24.438-36.562V138h-5.903zm45.163-22.661c0-7.723 2.074-13.764 6.221-18.123 4.147-4.38 9.5-6.57 16.059-6.57 4.296 0 8.168 1.027 11.617 3.08 3.449 2.052 6.072 4.918 7.871 8.6 1.819 3.661 2.729 7.818 2.729 12.473 0 4.719-.952 8.94-2.856 12.664-1.905 3.724-4.602 6.549-8.093 8.474-3.492 1.904-7.258 2.856-11.299 2.856-4.38 0-8.295-1.057-11.743-3.173-3.449-2.116-6.063-5.004-7.84-8.665a26.26 26.26 0 0 1-2.666-11.616zm6.348.095c0 5.607 1.502 10.029 4.507 13.267 3.025 3.216 6.813 4.824 11.362 4.824 4.634 0 8.442-1.629 11.426-4.888 3.004-3.258 4.507-7.881 4.507-13.869 0-3.788-.646-7.089-1.936-9.903-1.27-2.835-3.143-5.025-5.618-6.57-2.455-1.565-5.216-2.348-8.284-2.348-4.359 0-8.114 1.502-11.267 4.507-3.131 2.983-4.697 7.977-4.697 14.98zM648.479 138l-12.347-46.528h6.316l7.078 30.5a158.303 158.303 0 0 1 1.968 9.522c1.185-4.973 1.883-7.84 2.094-8.601l8.855-31.421h7.427l6.665 23.549c1.672 5.84 2.878 11.331 3.618 16.473.593-2.941 1.365-6.316 2.317-10.125l7.3-29.897h6.189L683.2 138h-5.935l-9.807-35.452c-.825-2.962-1.312-4.782-1.46-5.459a113.964 113.964 0 0 1-1.365 5.459L654.763 138h-6.284z" fill="#E2E5EF"/></g><path fill="#fff" d="M0 223h3315v215H0z"/><path d="M192.853 352v-41.038h-15.33v-5.49h36.88v5.49H199.01V352h-6.157zm17.805-16.853c0-6.242 1.735-10.865 5.205-13.87 2.899-2.496 6.433-3.745 10.601-3.745 4.634 0 8.421 1.524 11.362 4.571 2.941 3.025 4.412 7.215 4.412 12.568 0 4.337-.656 7.755-1.968 10.251-1.291 2.476-3.184 4.401-5.681 5.777-2.476 1.375-5.184 2.063-8.125 2.063-4.719 0-8.538-1.513-11.458-4.539-2.898-3.026-4.348-7.384-4.348-13.076zm5.872 0c0 4.316.941 7.554 2.824 9.712 1.884 2.137 4.253 3.205 7.11 3.205 2.835 0 5.194-1.079 7.078-3.237 1.883-2.158 2.824-5.448 2.824-9.87 0-4.169-.952-7.321-2.856-9.458-1.883-2.159-4.232-3.238-7.046-3.238-2.857 0-5.226 1.069-7.11 3.206-1.883 2.137-2.824 5.364-2.824 9.68zM270.834 352v-4.253c-2.137 3.343-5.279 5.015-9.426 5.015-2.687 0-5.163-.741-7.427-2.222-2.243-1.481-3.988-3.544-5.237-6.189-1.227-2.666-1.841-5.723-1.841-9.172 0-3.365.561-6.411 1.682-9.141 1.122-2.751 2.804-4.856 5.047-6.316s4.75-2.19 7.522-2.19c2.031 0 3.84.434 5.427 1.301 1.587.847 2.878 1.958 3.872 3.333v-16.694h5.681V352h-5.3zm-18.059-16.821c0 4.316.91 7.543 2.729 9.68 1.82 2.137 3.968 3.205 6.443 3.205 2.497 0 4.613-1.015 6.348-3.046 1.756-2.053 2.634-5.174 2.634-9.363 0-4.613-.888-7.998-2.666-10.156-1.777-2.159-3.967-3.238-6.57-3.238-2.539 0-4.665 1.037-6.379 3.111-1.693 2.073-2.539 5.342-2.539 9.807zm30.246-.032c0-6.242 1.736-10.865 5.206-13.87 2.898-2.496 6.432-3.745 10.6-3.745 4.634 0 8.421 1.524 11.362 4.571 2.942 3.025 4.412 7.215 4.412 12.568 0 4.337-.656 7.755-1.968 10.251-1.29 2.476-3.184 4.401-5.681 5.777-2.475 1.375-5.184 2.063-8.125 2.063-4.718 0-8.537-1.513-11.457-4.539-2.899-3.026-4.349-7.384-4.349-13.076zm5.872 0c0 4.316.942 7.554 2.825 9.712 1.883 2.137 4.253 3.205 7.109 3.205 2.835 0 5.195-1.079 7.078-3.237 1.883-2.158 2.824-5.448 2.824-9.87 0-4.169-.952-7.321-2.856-9.458-1.883-2.159-4.232-3.238-7.046-3.238-2.856 0-5.226 1.069-7.109 3.206s-2.825 5.364-2.825 9.68zM339.896 352v-46.528h6.158v41.037h22.915V352h-29.073zm35.738-39.958v-6.57h5.713v6.57h-5.713zm0 39.958v-33.706h5.713V352h-5.713zm12.156-10.061l5.649-.889c.317 2.264 1.195 3.999 2.634 5.205 1.46 1.206 3.491 1.809 6.094 1.809 2.624 0 4.57-.529 5.84-1.586 1.269-1.08 1.904-2.339 1.904-3.777 0-1.291-.561-2.307-1.682-3.047-.783-.508-2.729-1.153-5.84-1.936-4.189-1.058-7.099-1.968-8.728-2.73-1.608-.783-2.835-1.851-3.682-3.205-.825-1.376-1.237-2.888-1.237-4.539 0-1.502.338-2.888 1.015-4.158a9.367 9.367 0 0 1 2.825-3.205c.889-.656 2.095-1.206 3.618-1.651 1.545-.465 3.195-.698 4.951-.698 2.645 0 4.962.381 6.951 1.143 2.01.762 3.491 1.798 4.443 3.11.953 1.291 1.608 3.026 1.968 5.205l-5.586.762c-.254-1.735-.994-3.089-2.221-4.063-1.206-.973-2.92-1.46-5.142-1.46-2.624 0-4.496.434-5.618 1.302-1.121.867-1.682 1.883-1.682 3.047 0 .74.233 1.407.698 1.999.466.614 1.196 1.122 2.19 1.524.572.211 2.254.698 5.047 1.46 4.041 1.079 6.855 1.967 8.442 2.666 1.608.677 2.867 1.671 3.777 2.983.91 1.312 1.365 2.941 1.365 4.888 0 1.904-.561 3.702-1.682 5.395-1.101 1.672-2.698 2.973-4.793 3.904-2.095.91-4.464 1.365-7.109 1.365-4.38 0-7.723-.91-10.03-2.73-2.285-1.819-3.745-4.517-4.379-8.093zm47.258 4.951l.825 5.047c-1.608.338-3.047.507-4.316.507-2.074 0-3.682-.328-4.825-.984-1.142-.655-1.946-1.512-2.412-2.57-.465-1.079-.698-3.333-.698-6.761v-19.392h-4.189v-4.443h4.189v-8.347l5.681-3.428v11.775h5.745v4.443h-5.745v19.71c0 1.629.095 2.676.286 3.142.211.465.539.836.984 1.111.465.275 1.121.412 1.968.412.634 0 1.47-.074 2.507-.222z" fill="#656667"/><path fill-rule="evenodd" clip-rule="evenodd" d="M257 673c-13.807 0-25 11.193-25 25v393c0 13.81 11.193 25 25 25V673z" fill="#8086B5" fill-opacity=".1"/><rect x="233" y="674" width="712" height="441" rx="24" stroke="#D3D4E6" stroke-width="2"/><g filter="url(#filter4_d)"><path d="M345.512 985v-39.37h26.56v4.646h-21.35v12.192h18.476v4.646h-18.476V985h-5.21zm32.763-33.811v-5.559h4.834v5.559h-4.834zm0 33.811v-28.521h4.834V985h-4.834zm12.166 0v-28.521h4.351v4.324c1.11-2.023 2.13-3.357 3.061-4.001a5.425 5.425 0 0 1 3.115-.967c1.629 0 3.286.519 4.969 1.558l-1.666 4.484c-1.181-.698-2.363-1.047-3.544-1.047a4.558 4.558 0 0 0-2.847.967c-.842.627-1.441 1.504-1.799 2.632-.538 1.718-.806 3.598-.806 5.639V985h-4.834zm16.435-8.513l4.781-.752c.268 1.916 1.011 3.384 2.229 4.404 1.235 1.021 2.954 1.531 5.156 1.531 2.22 0 3.867-.448 4.941-1.343 1.075-.913 1.612-1.978 1.612-3.196 0-1.092-.475-1.951-1.424-2.578-.662-.429-2.309-.976-4.941-1.638-3.545-.895-6.007-1.665-7.385-2.31-1.361-.662-2.399-1.566-3.116-2.712-.698-1.164-1.047-2.444-1.047-3.84 0-1.271.287-2.444.86-3.518a7.908 7.908 0 0 1 2.39-2.713c.752-.555 1.772-1.02 3.061-1.396 1.307-.394 2.704-.591 4.19-.591 2.238 0 4.198.322 5.881.967 1.701.644 2.954 1.522 3.76 2.632.805 1.092 1.36 2.56 1.665 4.404l-4.727.644c-.215-1.468-.841-2.614-1.88-3.437-1.02-.824-2.47-1.235-4.35-1.235-2.22 0-3.805.367-4.754 1.101-.949.734-1.423 1.593-1.423 2.578 0 .626.197 1.19.591 1.692.394.519 1.011.949 1.853 1.289.483.179 1.907.591 4.27 1.235 3.419.913 5.801 1.665 7.143 2.256 1.361.573 2.426 1.414 3.196 2.524s1.155 2.489 1.155 4.136c0 1.611-.474 3.133-1.423 4.566-.931 1.414-2.283 2.515-4.056 3.303-1.772.77-3.777 1.155-6.015 1.155-3.706 0-6.535-.77-8.486-2.31-1.934-1.54-3.169-3.822-3.707-6.848zm39.988 4.189l.698 4.27c-1.36.287-2.578.43-3.652.43-1.754 0-3.115-.278-4.082-.833-.967-.555-1.647-1.28-2.041-2.175-.394-.913-.591-2.82-.591-5.72v-16.409h-3.545v-3.76h3.545v-7.062l4.807-2.901v9.963h4.861v3.76h-4.861v16.678c0 1.378.081 2.264.242 2.658.179.394.457.707.833.94.394.233.949.349 1.665.349.537 0 1.244-.062 2.121-.188zM476.54 985v-34.724h-12.972v-4.646h31.206v4.646H481.75V985h-5.21zm35.476-3.518c-1.791 1.522-3.518 2.596-5.183 3.223-1.648.626-3.42.94-5.318.94-3.133 0-5.541-.761-7.224-2.283-1.683-1.54-2.524-3.5-2.524-5.882 0-1.396.313-2.667.94-3.813.644-1.164 1.477-2.095 2.497-2.793a11.938 11.938 0 0 1 3.491-1.584c.949-.251 2.381-.493 4.297-.726 3.903-.465 6.777-1.02 8.621-1.665.018-.662.027-1.083.027-1.262 0-1.969-.457-3.357-1.37-4.162-1.235-1.093-3.07-1.639-5.505-1.639-2.274 0-3.957.403-5.049 1.209-1.074.788-1.871 2.193-2.39 4.216l-4.727-.644c.43-2.023 1.137-3.653 2.122-4.888.984-1.253 2.408-2.211 4.27-2.874 1.862-.68 4.019-1.02 6.472-1.02 2.435 0 4.413.286 5.935.859 1.522.573 2.641 1.298 3.357 2.176.716.859 1.217 1.951 1.504 3.276.161.824.241 2.31.241 4.458v6.445c0 4.494.099 7.341.296 8.54a11.036 11.036 0 0 0 1.235 3.411h-5.049c-.501-1.003-.823-2.175-.966-3.518zm-.403-10.796c-1.755.716-4.387 1.325-7.896 1.826-1.987.287-3.392.609-4.216.967-.824.358-1.459.886-1.907 1.584a4.07 4.07 0 0 0-.671 2.283c0 1.289.483 2.363 1.45 3.223.985.859 2.417 1.289 4.297 1.289 1.862 0 3.518-.403 4.968-1.209 1.45-.823 2.516-1.942 3.196-3.357.519-1.092.779-2.703.779-4.834v-1.772zm10.473 5.801l4.781-.752c.268 1.916 1.011 3.384 2.229 4.404 1.235 1.021 2.954 1.531 5.156 1.531 2.22 0 3.867-.448 4.941-1.343 1.075-.913 1.612-1.978 1.612-3.196 0-1.092-.475-1.951-1.424-2.578-.662-.429-2.309-.976-4.941-1.638-3.545-.895-6.007-1.665-7.385-2.31-1.361-.662-2.399-1.566-3.116-2.712-.698-1.164-1.047-2.444-1.047-3.84 0-1.271.287-2.444.859-3.518a7.92 7.92 0 0 1 2.391-2.713c.752-.555 1.772-1.02 3.061-1.396 1.307-.394 2.704-.591 4.19-.591 2.238 0 4.198.322 5.881.967 1.701.644 2.954 1.522 3.76 2.632.805 1.092 1.36 2.56 1.665 4.404l-4.727.644c-.215-1.468-.841-2.614-1.88-3.437-1.02-.824-2.47-1.235-4.35-1.235-2.22 0-3.805.367-4.754 1.101-.949.734-1.423 1.593-1.423 2.578 0 .626.197 1.19.591 1.692.394.519 1.011.949 1.853 1.289.483.179 1.907.591 4.27 1.235 3.419.913 5.801 1.665 7.143 2.256 1.361.573 2.426 1.414 3.196 2.524s1.155 2.489 1.155 4.136c0 1.611-.474 3.133-1.423 4.566-.931 1.414-2.283 2.515-4.056 3.303-1.772.77-3.777 1.155-6.015 1.155-3.706 0-6.535-.77-8.487-2.31-1.933-1.54-3.168-3.822-3.706-6.848zM551.547 985v-39.37h4.834v22.451l11.44-11.602h6.258l-10.904 10.582L575.18 985h-5.962l-9.426-14.583-3.411 3.277V985h-4.834z" fill="#4D4D4D"/></g><g filter="url(#filter5_d)"><path d="M356.647 1056h-3.691v-23.52c-.889.85-2.058 1.69-3.507 2.54-1.435.85-2.727 1.48-3.876 1.91v-3.57c2.065-.97 3.869-2.15 5.414-3.53 1.545-1.38 2.639-2.72 3.282-4.02h2.378V1056zm9.475-14.83c0-3.55.362-6.41 1.087-8.57.738-2.17 1.825-3.85 3.261-5.02 1.449-1.18 3.267-1.77 5.455-1.77 1.613 0 3.028.33 4.245.99 1.217.64 2.222 1.58 3.015 2.81.793 1.21 1.415 2.7 1.866 4.47.451 1.75.677 4.11.677 7.09 0 3.53-.363 6.38-1.087 8.55-.725 2.16-1.812 3.84-3.261 5.03-1.436 1.17-3.254 1.76-5.455 1.76-2.899 0-5.175-1.04-6.829-3.11-1.983-2.51-2.974-6.58-2.974-12.23zm3.794 0c0 4.94.574 8.23 1.723 9.87 1.162 1.62 2.59 2.44 4.286 2.44 1.695 0 3.117-.82 4.265-2.46 1.163-1.64 1.744-4.93 1.744-9.85 0-4.95-.581-8.23-1.744-9.86-1.148-1.63-2.584-2.44-4.306-2.44-1.696 0-3.049.72-4.061 2.15-1.271 1.83-1.907 5.22-1.907 10.15zm32.3 14.83v-21.78h3.302v3.06c.683-1.07 1.592-1.92 2.727-2.57 1.135-.65 2.427-.98 3.876-.98 1.613 0 2.933.33 3.958 1 1.039.67 1.771 1.61 2.194 2.81 1.723-2.54 3.965-3.81 6.727-3.81 2.16 0 3.821.6 4.983 1.8 1.163 1.19 1.744 3.03 1.744 5.52V1056h-3.671v-13.72c0-1.48-.123-2.54-.369-3.18-.233-.65-.664-1.18-1.292-1.58-.629-.39-1.368-.59-2.215-.59-1.532 0-2.803.51-3.815 1.54-1.011 1.01-1.517 2.63-1.517 4.88V1056h-3.692v-14.15c0-1.64-.301-2.87-.902-3.69-.602-.82-1.586-1.23-2.953-1.23a5.39 5.39 0 0 0-2.892.82c-.875.54-1.511 1.34-1.907 2.4-.397 1.05-.595 2.57-.595 4.55v11.3h-3.691zm35.007-25.82v-4.24h3.691v4.24h-3.691zm0 25.82v-21.78h3.691V1056h-3.691zm9.331 0v-21.78h3.322v3.1c1.6-2.4 3.91-3.59 6.932-3.59 1.312 0 2.515.24 3.609.72 1.107.46 1.935 1.08 2.481 1.84.547.77.93 1.68 1.149 2.73.137.68.205 1.88.205 3.59V1056h-3.691v-13.25c0-1.5-.144-2.62-.431-3.36-.287-.75-.8-1.35-1.538-1.79-.725-.45-1.579-.67-2.564-.67-1.572 0-2.932.5-4.081 1.49-1.135 1-1.702 2.9-1.702 5.69V1056h-3.691zm21.902-6.5l3.65-.58c.206 1.47.773 2.59 1.703 3.37.943.78 2.255 1.17 3.937 1.17 1.695 0 2.953-.34 3.774-1.03.82-.7 1.23-1.51 1.23-2.44 0-.83-.362-1.49-1.087-1.97-.506-.33-1.764-.74-3.773-1.25-2.707-.68-4.587-1.27-5.64-1.76-1.039-.51-1.832-1.2-2.379-2.07-.533-.89-.8-1.87-.8-2.94 0-.97.219-1.86.657-2.68a5.921 5.921 0 0 1 1.825-2.07c.574-.43 1.353-.78 2.338-1.07.998-.3 2.064-.45 3.199-.45 1.709 0 3.206.24 4.491.74 1.299.49 2.256 1.16 2.871 2.01.615.83 1.039 1.95 1.272 3.36l-3.61.49c-.164-1.12-.642-1.99-1.435-2.62-.78-.63-1.887-.95-3.323-.95-1.695 0-2.905.28-3.629.84-.725.57-1.087 1.22-1.087 1.97 0 .48.15.91.451 1.3.301.39.772.72 1.415.98.369.14 1.456.45 3.261.94 2.611.7 4.429 1.27 5.455 1.73 1.039.43 1.852 1.08 2.44 1.92.588.85.882 1.9.882 3.16 0 1.23-.362 2.39-1.087 3.49-.711 1.08-1.743 1.92-3.097 2.52-1.353.59-2.884.88-4.593.88-2.83 0-4.991-.59-6.481-1.76-1.476-1.18-2.42-2.92-2.83-5.23z" fill="#464646"/></g><path fill-rule="evenodd" clip-rule="evenodd" d="M249.976 1115c-6.782-1.98-12.37-6.76-15.433-13h708.912c-3.063 6.24-8.651 11.02-15.433 13H249.976z" fill="#8A91BC"/><rect x="1054" y="673" width="714" height="443" rx="25" fill="#fff"/><rect x="1057" y="673" width="708" height="233" rx="21" fill="#E6E8F4"/><path fill="#E6E8F4" d="M1054 838h714v68h-714z"/><circle cx="1658" cy="906" r="56" fill="#8086B5"/><path fill-rule="evenodd" clip-rule="evenodd" d="M1079 673c-13.81 0-25 11.193-25 25v393c0 13.81 11.19 25 25 25h63V673h-63z" fill="#8086B5" fill-opacity=".1"/><rect x="1055" y="674" width="712" height="441" rx="24" stroke="#D3D4E6" stroke-width="2"/><g filter="url(#filter6_d)"><path d="M1162.92 985l15.12-39.37h5.61l16.12 39.37h-5.94l-4.59-11.924h-16.46L1168.45 985h-5.53zm11.36-16.167h13.35l-4.11-10.903c-1.26-3.312-2.19-6.034-2.8-8.164-.5 2.524-1.2 5.031-2.12 7.519l-4.32 11.548zM1203.31 985v-28.521h4.35v4.056c2.1-3.133 5.12-4.7 9.08-4.7 1.72 0 3.29.313 4.72.94 1.45.609 2.54 1.414 3.25 2.417.72 1.002 1.22 2.193 1.51 3.572.18.895.27 2.461.27 4.699V985h-4.84v-17.349c0-1.969-.19-3.437-.56-4.404-.38-.985-1.05-1.763-2.02-2.336-.94-.591-2.06-.887-3.35-.887-2.06 0-3.84.654-5.35 1.961-1.48 1.307-2.23 3.786-2.23 7.439V985h-4.83zm28.82-14.26c0-5.282 1.46-9.194 4.4-11.736 2.45-2.113 5.44-3.169 8.97-3.169 3.92 0 7.13 1.289 9.61 3.867 2.49 2.56 3.74 6.105 3.74 10.635 0 3.67-.56 6.562-1.67 8.674-1.09 2.095-2.69 3.724-4.8 4.888-2.1 1.164-4.39 1.746-6.88 1.746-3.99 0-7.22-1.281-9.69-3.841-2.46-2.56-3.68-6.248-3.68-11.064zm4.96 0c0 3.652.8 6.391 2.39 8.218 1.6 1.808 3.6 2.712 6.02 2.712 2.4 0 4.4-.913 5.99-2.739 1.59-1.827 2.39-4.611 2.39-8.352 0-3.527-.81-6.195-2.42-8.003-1.59-1.826-3.58-2.74-5.96-2.74-2.42 0-4.42.905-6.02 2.713-1.59 1.808-2.39 4.538-2.39 8.191zm38 9.936l.7 4.27c-1.36.287-2.58.43-3.65.43-1.75 0-3.11-.278-4.08-.833-.97-.555-1.65-1.28-2.04-2.175-.4-.913-.59-2.82-.59-5.72v-16.409h-3.55v-3.76h3.55v-7.062l4.8-2.901v9.963h4.86v3.76h-4.86v16.678c0 1.378.08 2.264.25 2.658.17.394.45.707.83.94.39.233.95.349 1.66.349.54 0 1.25-.062 2.12-.188zm4.76 4.324v-39.37h4.83v14.126c2.26-2.614 5.1-3.921 8.54-3.921 2.11 0 3.95.421 5.51 1.262 1.56.824 2.67 1.97 3.33 3.438.68 1.468 1.02 3.598 1.02 6.391V985h-4.84v-18.074c0-2.417-.52-4.171-1.58-5.263-1.04-1.11-2.52-1.665-4.43-1.665-1.43 0-2.79.376-4.06 1.127-1.25.735-2.15 1.737-2.68 3.008-.54 1.271-.81 3.026-.81 5.264V985h-4.83zm50.14-9.185l4.99.618c-.79 2.918-2.24 5.183-4.38 6.795-2.13 1.611-4.85 2.417-8.16 2.417-4.17 0-7.48-1.281-9.94-3.841-2.43-2.578-3.65-6.186-3.65-10.823 0-4.798 1.24-8.522 3.71-11.171 2.47-2.65 5.67-3.975 9.61-3.975 3.82 0 6.93 1.298 9.35 3.894s3.62 6.248 3.62 10.957c0 .286-.01.716-.02 1.289h-21.27c.18 3.133 1.06 5.532 2.66 7.197 1.59 1.665 3.58 2.498 5.96 2.498 1.77 0 3.28-.466 4.54-1.397 1.25-.931 2.24-2.417 2.98-4.458zM1314.12 968h15.92c-.21-2.399-.82-4.198-1.83-5.397-1.53-1.862-3.53-2.793-5.98-2.793-2.22 0-4.09.743-5.62 2.229-1.5 1.486-2.33 3.473-2.49 5.961zm26.9 17v-28.521h4.36v4.324c1.11-2.023 2.13-3.357 3.06-4.001a5.408 5.408 0 0 1 3.11-.967c1.63 0 3.29.519 4.97 1.558l-1.66 4.484c-1.19-.698-2.37-1.047-3.55-1.047-1.06 0-2 .322-2.85.967-.84.627-1.44 1.504-1.8 2.632-.53 1.718-.8 3.598-.8 5.639V985h-4.84zm43.3 0v-34.724h-12.98v-4.646h31.21v4.646h-13.02V985h-5.21zm35.47-3.518c-1.79 1.522-3.52 2.596-5.18 3.223-1.65.626-3.42.94-5.32.94-3.13 0-5.54-.761-7.22-2.283-1.69-1.54-2.53-3.5-2.53-5.882 0-1.396.32-2.667.94-3.813.65-1.164 1.48-2.095 2.5-2.793 1.04-.698 2.2-1.226 3.49-1.584.95-.251 2.38-.493 4.3-.726 3.9-.465 6.78-1.02 8.62-1.665.02-.662.03-1.083.03-1.262 0-1.969-.46-3.357-1.37-4.162-1.24-1.093-3.07-1.639-5.51-1.639-2.27 0-3.96.403-5.05 1.209-1.07.788-1.87 2.193-2.39 4.216l-4.72-.644c.43-2.023 1.13-3.653 2.12-4.888.98-1.253 2.41-2.211 4.27-2.874 1.86-.68 4.02-1.02 6.47-1.02 2.43 0 4.41.286 5.93.859 1.53.573 2.65 1.298 3.36 2.176.72.859 1.22 1.951 1.51 3.276.16.824.24 2.31.24 4.458v6.445c0 4.494.1 7.341.29 8.54.22 1.182.63 2.319 1.24 3.411h-5.05c-.5-1.003-.82-2.175-.97-3.518zm-.4-10.796c-1.76.716-4.39 1.325-7.9 1.826-1.98.287-3.39.609-4.21.967-.83.358-1.46.886-1.91 1.584a4.046 4.046 0 0 0-.67 2.283c0 1.289.48 2.363 1.45 3.223.98.859 2.42 1.289 4.3 1.289 1.86 0 3.51-.403 4.96-1.209 1.45-.823 2.52-1.942 3.2-3.357.52-1.092.78-2.703.78-4.834v-1.772zm10.47 5.801l4.78-.752c.27 1.916 1.01 3.384 2.23 4.404 1.24 1.021 2.96 1.531 5.16 1.531 2.22 0 3.87-.448 4.94-1.343 1.07-.913 1.61-1.978 1.61-3.196 0-1.092-.47-1.951-1.42-2.578-.66-.429-2.31-.976-4.94-1.638-3.55-.895-6.01-1.665-7.39-2.31-1.36-.662-2.4-1.566-3.11-2.712a7.311 7.311 0 0 1-1.05-3.84c0-1.271.28-2.444.86-3.518a7.939 7.939 0 0 1 2.39-2.713c.75-.555 1.77-1.02 3.06-1.396 1.31-.394 2.7-.591 4.19-.591 2.24 0 4.2.322 5.88.967 1.7.644 2.95 1.522 3.76 2.632.81 1.092 1.36 2.56 1.67 4.404l-4.73.644c-.22-1.468-.84-2.614-1.88-3.437-1.02-.824-2.47-1.235-4.35-1.235-2.22 0-3.81.367-4.76 1.101-.94.734-1.42 1.593-1.42 2.578 0 .626.2 1.19.59 1.692.4.519 1.01.949 1.86 1.289.48.179 1.9.591 4.27 1.235 3.41.913 5.8 1.665 7.14 2.256 1.36.573 2.42 1.414 3.19 2.524s1.16 2.489 1.16 4.136c0 1.611-.48 3.133-1.42 4.566-.94 1.414-2.29 2.515-4.06 3.303-1.77.77-3.78 1.155-6.01 1.155-3.71 0-6.54-.77-8.49-2.31-1.93-1.54-3.17-3.822-3.71-6.848zm29.46 8.513v-39.37h4.84v22.451l11.44-11.602h6.25l-10.9 10.582L1482.96 985h-5.97l-9.42-14.583-3.41 3.277V985h-4.84z" fill="#4D4D4D"/></g><g filter="url(#filter7_d)"><path d="M1178.65 1056h-3.69v-23.52c-.89.85-2.06 1.69-3.51 2.54-1.44.85-2.73 1.48-3.88 1.91v-3.57c2.07-.97 3.87-2.15 5.42-3.53 1.54-1.38 2.64-2.72 3.28-4.02h2.38V1056zm9.47-7.88l3.88-.32c.29 1.88.95 3.31 1.99 4.26 1.05.95 2.31 1.42 3.79 1.42 1.78 0 3.28-.67 4.51-2.01 1.23-1.34 1.85-3.12 1.85-5.33 0-2.11-.6-3.77-1.79-4.99-1.17-1.21-2.72-1.82-4.63-1.82-1.19 0-2.26.27-3.22.82-.96.53-1.71 1.23-2.26 2.09l-3.46-.45 2.91-15.44h14.95v3.52h-12l-1.62 8.08c1.81-1.25 3.7-1.88 5.68-1.88 2.63 0 4.84.91 6.65 2.72 1.8 1.82 2.71 4.16 2.71 7.02 0 2.72-.8 5.07-2.38 7.05-1.93 2.44-4.56 3.65-7.9 3.65-2.73 0-4.97-.76-6.7-2.29-1.73-1.54-2.71-3.57-2.96-6.1zm36.1 7.88v-21.78h3.3v3.06c.68-1.07 1.59-1.92 2.73-2.57 1.13-.65 2.42-.98 3.87-.98 1.61 0 2.93.33 3.96 1 1.04.67 1.77 1.61 2.19 2.81 1.73-2.54 3.97-3.81 6.73-3.81 2.16 0 3.82.6 4.98 1.8 1.17 1.19 1.75 3.03 1.75 5.52V1056h-3.67v-13.72c0-1.48-.13-2.54-.37-3.18-.24-.65-.67-1.18-1.3-1.58-.62-.39-1.36-.59-2.21-.59-1.53 0-2.8.51-3.81 1.54-1.02 1.01-1.52 2.63-1.52 4.88V1056h-3.69v-14.15c0-1.64-.3-2.87-.91-3.69-.6-.82-1.58-1.23-2.95-1.23-1.04 0-2 .27-2.89.82-.88.54-1.51 1.34-1.91 2.4-.39 1.05-.59 2.57-.59 4.55v11.3h-3.69zm35-25.82v-4.24h3.69v4.24h-3.69zm0 25.82v-21.78h3.69V1056h-3.69zm9.33 0v-21.78h3.33v3.1c1.6-2.4 3.91-3.59 6.93-3.59 1.31 0 2.51.24 3.61.72 1.1.46 1.93 1.08 2.48 1.84.55.77.93 1.68 1.15 2.73.13.68.2 1.88.2 3.59V1056h-3.69v-13.25c0-1.5-.14-2.62-.43-3.36-.29-.75-.8-1.35-1.54-1.79-.72-.45-1.58-.67-2.56-.67-1.57 0-2.93.5-4.08 1.49-1.14 1-1.7 2.9-1.7 5.69V1056h-3.7zm21.91-6.5l3.65-.58c.2 1.47.77 2.59 1.7 3.37.94.78 2.25 1.17 3.94 1.17s2.95-.34 3.77-1.03c.82-.7 1.23-1.51 1.23-2.44 0-.83-.36-1.49-1.09-1.97-.5-.33-1.76-.74-3.77-1.25-2.71-.68-4.59-1.27-5.64-1.76-1.04-.51-1.83-1.2-2.38-2.07-.53-.89-.8-1.87-.8-2.94 0-.97.22-1.86.66-2.68.45-.84 1.06-1.53 1.82-2.07.58-.43 1.36-.78 2.34-1.07 1-.3 2.07-.45 3.2-.45 1.71 0 3.21.24 4.49.74 1.3.49 2.26 1.16 2.87 2.01.62.83 1.04 1.95 1.27 3.36l-3.61.49c-.16-1.12-.64-1.99-1.43-2.62-.78-.63-1.89-.95-3.32-.95-1.7 0-2.91.28-3.63.84-.73.57-1.09 1.22-1.09 1.97 0 .48.15.91.45 1.3.3.39.77.72 1.42.98.37.14 1.45.45 3.26.94 2.61.7 4.43 1.27 5.45 1.73 1.04.43 1.85 1.08 2.44 1.92.59.85.88 1.9.88 3.16 0 1.23-.36 2.39-1.08 3.49-.71 1.08-1.75 1.92-3.1 2.52-1.35.59-2.88.88-4.59.88-2.83 0-4.99-.59-6.48-1.76-1.48-1.18-2.42-2.92-2.83-5.23z" fill="#464646"/></g><path fill-rule="evenodd" clip-rule="evenodd" d="M1071.98 1116a25.08 25.08 0 0 1-15.9-14h709.84a25.08 25.08 0 0 1-15.9 14h-678.04z" fill="#DABE86"/><path d="M1643 880v58l49-29-49-29z" fill="#fff"/><rect x="1874" y="673" width="714" height="443" rx="25" fill="#fff"/><rect x="1877" y="673" width="708" height="233" rx="21" fill="#E6E8F4"/><path fill="#E6E8F4" d="M1874 838h714v68h-714z"/><circle cx="2478" cy="906" r="56" fill="#8086B5"/><path fill-rule="evenodd" clip-rule="evenodd" d="M1899 673c-13.81 0-25 11.193-25 25v393c0 13.81 11.19 25 25 25h231V673h-231z" fill="#8086B5" fill-opacity=".1"/><rect x="1875" y="674" width="712" height="441" rx="24" stroke="#D3D4E6" stroke-width="2"/><path d="M1383.33 788c.85 0 1.7-.365 2.35-1.096l9.34-10.515c1.31-1.461 1.31-3.831 0-5.292-1.29-1.463-3.4-1.463-4.7 0l-9.34 10.515c-1.31 1.461-1.31 3.831 0 5.292.65.731 1.5 1.096 2.35 1.096zM1388.96 827.966a3.516 3.516 0 0 0 0-4.998l-9.93-9.931a3.52 3.52 0 0 0-4.99 0 3.514 3.514 0 0 0 0 4.996l9.93 9.933a3.52 3.52 0 0 0 2.5 1.034c.9 0 1.8-.345 2.49-1.034zM1429.97 813.037l-9.93 9.931a3.516 3.516 0 0 0 0 4.998 3.52 3.52 0 0 0 2.5 1.034c.9 0 1.8-.345 2.49-1.034l9.93-9.932a3.524 3.524 0 0 0 0-4.997 3.52 3.52 0 0 0-4.99 0zM1413.97 771.097c-1.29 1.461-1.29 3.831.01 5.293l9.34 10.516c.65.729 1.5 1.094 2.35 1.094.86 0 1.71-.365 2.36-1.096 1.3-1.461 1.3-3.831-.01-5.293l-9.34-10.516c-1.3-1.46-3.41-1.461-4.71.002zM1404.5 750c6.35 0 11.5-4.925 11.5-11s-5.15-11-11.5-11-11.5 4.925-11.5 11 5.15 11 11.5 11z" fill="#959DD3"/><path d="M1390.7 767h27.62c3.8 0 6.8-2.896 6.68-6.438 0 0-.06-1.426-.66-3.744l.16.696c-1.25-5.753-4.17-7.224-9.11-9.513-2.53 3.02-6.46 4.97-10.88 4.97-4.42 0-8.35-1.952-10.88-4.971-4.94 2.29-7.86 3.76-9.11 9.514-.49 2.253-.52 3.047-.52 3.047-.11 3.543 2.9 6.439 6.7 6.439zM1404.5 834c6.35 0 11.5-4.925 11.5-11s-5.15-11-11.5-11-11.5 4.925-11.5 11 5.15 11 11.5 11z" fill="#959DD3"/><path d="M1424.5 840.515c-1.25-6.357-4.17-7.985-9.11-10.515-2.53 3.338-6.46 5.493-10.88 5.493-4.42 0-8.35-2.158-10.88-5.493-4.94 2.53-7.86 4.158-9.11 10.515-.49 2.492-.52 3.367-.52 3.367-.11 3.917 2.9 7.118 6.7 7.118h27.62c3.8 0 6.8-3.201 6.68-7.115 0 0-.06-1.576-.66-4.141l.16.771zM1364 791c6.08 0 11-4.925 11-11s-4.92-11-11-11-11 4.925-11 11 4.92 11 11 11z" fill="#959DD3"/><path d="M1383 802.22c-.01 0-.05-1.499-.64-3.938l.16.731c-1.22-6.054-4.08-7.603-8.9-10.013-2.46 3.176-6.3 5.229-10.61 5.229s-8.14-2.054-10.61-5.229c-4.82 2.41-7.67 3.958-8.89 10.013-.48 2.373-.51 3.207-.51 3.207-.11 3.728 2.83 6.78 6.54 6.78h26.95c3.7-.001 6.63-3.052 6.51-6.78zM1445 791c6.08 0 11-4.925 11-11s-4.92-11-11-11-11 4.925-11 11 4.92 11 11 11z" fill="#959DD3"/><path d="M1465.35 798.282l.17.731c-1.23-6.054-4.08-7.603-8.9-10.013-2.47 3.176-6.3 5.229-10.61 5.229s-8.14-2.054-10.61-5.229c-4.82 2.41-7.68 3.958-8.89 10.013-.48 2.373-.51 3.207-.51 3.207-.11 3.728 2.83 6.78 6.54 6.78h26.95c3.7 0 6.63-3.052 6.51-6.78-.01 0-.06-1.5-.65-3.938z" fill="#959DD3"/><g filter="url(#filter8_d)"><path d="M1997.26 985v-34.724h-12.97v-4.646h31.21v4.646h-13.03V985h-5.21zm22.99 0v-39.37h4.83v14.126c2.26-2.614 5.11-3.921 8.54-3.921 2.12 0 3.95.421 5.51 1.262 1.56.824 2.67 1.97 3.33 3.438.68 1.468 1.02 3.598 1.02 6.391V985h-4.84v-18.074c0-2.417-.52-4.171-1.58-5.263-1.04-1.11-2.52-1.665-4.43-1.665-1.43 0-2.79.376-4.06 1.127-1.25.735-2.14 1.737-2.68 3.008s-.81 3.026-.81 5.264V985h-4.83zm30.64-33.811v-5.559h4.83v5.559h-4.83zm0 33.811v-28.521h4.83V985h-4.83zm12.17 0v-28.521h4.35v4.324c1.11-2.023 2.13-3.357 3.06-4.001a5.43 5.43 0 0 1 3.11-.967c1.63 0 3.29.519 4.97 1.558l-1.66 4.484c-1.18-.698-2.37-1.047-3.55-1.047-1.05 0-2 .322-2.84.967-.85.627-1.45 1.504-1.8 2.632-.54 1.718-.81 3.598-.81 5.639V985h-4.83zm36.87 0v-3.599c-1.81 2.829-4.47 4.244-7.98 4.244-2.27 0-4.37-.627-6.28-1.88-1.9-1.254-3.38-2.999-4.43-5.237-1.04-2.256-1.56-4.843-1.56-7.761 0-2.847.47-5.425 1.42-7.735.95-2.327 2.38-4.109 4.27-5.344 1.9-1.235 4.02-1.853 6.37-1.853 1.72 0 3.25.367 4.59 1.101 1.34.716 2.43 1.656 3.28 2.82V945.63h4.8V985h-4.48zm-15.28-14.233c0 3.652.77 6.382 2.31 8.191 1.54 1.808 3.35 2.712 5.45 2.712 2.11 0 3.9-.859 5.37-2.578 1.49-1.737 2.23-4.378 2.23-7.923 0-3.903-.75-6.767-2.26-8.593-1.5-1.826-3.35-2.74-5.56-2.74-2.14 0-3.94.878-5.39 2.632-1.44 1.755-2.15 4.521-2.15 8.299zM2136.96 985v-34.724h-12.97v-4.646h31.21v4.646h-13.03V985h-5.21zm35.48-3.518c-1.79 1.522-3.52 2.596-5.18 3.223-1.65.626-3.42.94-5.32.94-3.14 0-5.54-.761-7.23-2.283-1.68-1.54-2.52-3.5-2.52-5.882 0-1.396.31-2.667.94-3.813.64-1.164 1.48-2.095 2.5-2.793 1.04-.698 2.2-1.226 3.49-1.584.95-.251 2.38-.493 4.3-.726 3.9-.465 6.77-1.02 8.62-1.665.01-.662.02-1.083.02-1.262 0-1.969-.45-3.357-1.37-4.162-1.23-1.093-3.07-1.639-5.5-1.639-2.28 0-3.96.403-5.05 1.209-1.08.788-1.87 2.193-2.39 4.216l-4.73-.644c.43-2.023 1.14-3.653 2.12-4.888.99-1.253 2.41-2.211 4.27-2.874 1.87-.68 4.02-1.02 6.48-1.02 2.43 0 4.41.286 5.93.859 1.52.573 2.64 1.298 3.36 2.176.71.859 1.22 1.951 1.5 3.276.16.824.24 2.31.24 4.458v6.445c0 4.494.1 7.341.3 8.54.21 1.182.63 2.319 1.23 3.411h-5.04c-.51-1.003-.83-2.175-.97-3.518zm-.4-10.796c-1.76.716-4.39 1.325-7.9 1.826-1.99.287-3.39.609-4.22.967-.82.358-1.46.886-1.9 1.584a4.046 4.046 0 0 0-.67 2.283c0 1.289.48 2.363 1.45 3.223.98.859 2.41 1.289 4.29 1.289 1.86 0 3.52-.403 4.97-1.209 1.45-.823 2.52-1.942 3.2-3.357.52-1.092.78-2.703.78-4.834v-1.772zm10.47 5.801l4.78-.752c.27 1.916 1.01 3.384 2.23 4.404 1.23 1.021 2.95 1.531 5.15 1.531 2.22 0 3.87-.448 4.95-1.343 1.07-.913 1.61-1.978 1.61-3.196 0-1.092-.48-1.951-1.43-2.578-.66-.429-2.31-.976-4.94-1.638-3.54-.895-6-1.665-7.38-2.31-1.36-.662-2.4-1.566-3.12-2.712a7.311 7.311 0 0 1-1.05-3.84c0-1.271.29-2.444.86-3.518a8.044 8.044 0 0 1 2.39-2.713c.76-.555 1.78-1.02 3.07-1.396 1.3-.394 2.7-.591 4.19-.591 2.23 0 4.19.322 5.88.967 1.7.644 2.95 1.522 3.76 2.632.8 1.092 1.36 2.56 1.66 4.404l-4.72.644c-.22-1.468-.85-2.614-1.88-3.437-1.03-.824-2.48-1.235-4.36-1.235-2.22 0-3.8.367-4.75 1.101-.95.734-1.42 1.593-1.42 2.578 0 .626.19 1.19.59 1.692.39.519 1.01.949 1.85 1.289.49.179 1.91.591 4.27 1.235 3.42.913 5.8 1.665 7.15 2.256 1.36.573 2.42 1.414 3.19 2.524s1.16 2.489 1.16 4.136c0 1.611-.48 3.133-1.43 4.566-.93 1.414-2.28 2.515-4.05 3.303-1.78.77-3.78 1.155-6.02 1.155-3.7 0-6.53-.77-8.48-2.31-1.94-1.54-3.17-3.822-3.71-6.848zm29.46 8.513v-39.37h4.83v22.451l11.44-11.602h6.26l-10.9 10.582 12 17.939h-5.96l-9.43-14.583-3.41 3.277V985h-4.83z" fill="#4D4D4D"/></g><g filter="url(#filter9_d)"><path d="M2004.14 1052.45v3.55h-19.87c-.03-.89.12-1.74.43-2.56.51-1.36 1.31-2.69 2.42-4 1.12-1.32 2.74-2.83 4.84-4.56 3.27-2.67 5.48-4.79 6.63-6.35 1.14-1.57 1.72-3.06 1.72-4.45 0-1.47-.53-2.7-1.58-3.69-1.04-1.02-2.4-1.52-4.08-1.52-1.78 0-3.2.53-4.27 1.6-1.06 1.06-1.6 2.54-1.62 4.43l-3.79-.39c.26-2.83 1.24-4.99 2.93-6.46 1.7-1.49 3.97-2.24 6.83-2.24 2.89 0 5.17.8 6.85 2.4 1.68 1.6 2.52 3.58 2.52 5.95 0 1.2-.24 2.38-.74 3.55-.49 1.16-1.31 2.38-2.46 3.67-1.13 1.28-3.02 3.05-5.68 5.29-2.21 1.86-3.63 3.12-4.26 3.79-.63.66-1.15 1.32-1.56 1.99h14.74zm3.98-4.33l3.88-.32c.29 1.88.95 3.31 1.99 4.26 1.05.95 2.31 1.42 3.79 1.42 1.78 0 3.28-.67 4.51-2.01 1.23-1.34 1.85-3.12 1.85-5.33 0-2.11-.6-3.77-1.79-4.99-1.17-1.21-2.72-1.82-4.63-1.82-1.19 0-2.26.27-3.22.82-.96.53-1.71 1.23-2.26 2.09l-3.46-.45 2.91-15.44h14.95v3.52h-12l-1.62 8.08c1.81-1.25 3.7-1.88 5.68-1.88 2.63 0 4.84.91 6.65 2.72 1.8 1.82 2.71 4.16 2.71 7.02 0 2.72-.8 5.07-2.38 7.05-1.93 2.44-4.56 3.65-7.9 3.65-2.73 0-4.97-.76-6.7-2.29-1.73-1.54-2.71-3.57-2.96-6.1zm36.1 7.88v-21.78h3.3v3.06c.68-1.07 1.59-1.92 2.73-2.57 1.13-.65 2.42-.98 3.87-.98 1.61 0 2.93.33 3.96 1 1.04.67 1.77 1.61 2.19 2.81 1.73-2.54 3.97-3.81 6.73-3.81 2.16 0 3.82.6 4.98 1.8 1.17 1.19 1.75 3.03 1.75 5.52V1056h-3.67v-13.72c0-1.48-.13-2.54-.37-3.18-.24-.65-.67-1.18-1.3-1.58-.62-.39-1.36-.59-2.21-.59-1.53 0-2.8.51-3.81 1.54-1.02 1.01-1.52 2.63-1.52 4.88V1056h-3.69v-14.15c0-1.64-.3-2.87-.91-3.69-.6-.82-1.58-1.23-2.95-1.23-1.04 0-2 .27-2.89.82-.88.54-1.51 1.34-1.91 2.4-.39 1.05-.59 2.57-.59 4.55v11.3h-3.69zm35-25.82v-4.24h3.69v4.24h-3.69zm0 25.82v-21.78h3.69V1056h-3.69zm9.33 0v-21.78h3.33v3.1c1.6-2.4 3.91-3.59 6.93-3.59 1.31 0 2.51.24 3.61.72 1.1.46 1.93 1.08 2.48 1.84.55.77.93 1.68 1.15 2.73.13.68.2 1.88.2 3.59V1056h-3.69v-13.25c0-1.5-.14-2.62-.43-3.36-.29-.75-.8-1.35-1.54-1.79-.72-.45-1.58-.67-2.56-.67-1.57 0-2.93.5-4.08 1.49-1.14 1-1.7 2.9-1.7 5.69V1056h-3.7zm21.91-6.5l3.65-.58c.2 1.47.77 2.59 1.7 3.37.94.78 2.25 1.17 3.94 1.17s2.95-.34 3.77-1.03c.82-.7 1.23-1.51 1.23-2.44 0-.83-.36-1.49-1.09-1.97-.5-.33-1.76-.74-3.77-1.25-2.71-.68-4.59-1.27-5.64-1.76-1.04-.51-1.83-1.2-2.38-2.07-.53-.89-.8-1.87-.8-2.94 0-.97.22-1.86.66-2.68.45-.84 1.06-1.53 1.82-2.07.58-.43 1.36-.78 2.34-1.07 1-.3 2.07-.45 3.2-.45 1.71 0 3.21.24 4.49.74 1.3.49 2.26 1.16 2.87 2.01.62.83 1.04 1.95 1.27 3.36l-3.61.49c-.16-1.12-.64-1.99-1.43-2.62-.78-.63-1.89-.95-3.32-.95-1.7 0-2.91.28-3.63.84-.73.57-1.09 1.22-1.09 1.97 0 .48.15.91.45 1.3.3.39.77.72 1.42.98.37.14 1.45.45 3.26.94 2.61.7 4.43 1.27 5.45 1.73 1.04.43 1.85 1.08 2.44 1.92.59.85.88 1.9.88 3.16 0 1.23-.36 2.39-1.08 3.49-.71 1.08-1.75 1.92-3.1 2.52-1.35.59-2.88.88-4.59.88-2.83 0-4.99-.59-6.48-1.76-1.48-1.18-2.42-2.92-2.83-5.23z" fill="#464646"/></g><path fill-rule="evenodd" clip-rule="evenodd" d="M1891.98 1116a25.08 25.08 0 0 1-15.9-14h709.84a25.08 25.08 0 0 1-15.9 14h-678.04z" fill="#DABE86"/><path d="M2463 880v58l49-29-49-29z" fill="#fff"/><path fill-rule="evenodd" clip-rule="evenodd" d="M2175.78 790.672h117.44c.98 0 1.78.793 1.78 1.771v7.18c0 .965-.8 1.77-1.78 1.77h-3.56v51.811c0 1.006-.8 1.796-1.79 1.796h-3.53c-1.01 0-1.8-.803-1.8-1.793v-12.502h-40.92c-.99 0-1.78-.796-1.78-1.779v-12.524c0-.965.8-1.779 1.78-1.779h40.92v-3.574h-40.92c-.99 0-1.78-.796-1.78-1.778v-12.525c0-.965.8-1.779 1.78-1.779h40.92v-3.574h-96.08v51.814c0 .987-.81 1.793-1.8 1.793h-3.53c-1 0-1.79-.797-1.79-1.781v-51.826h-3.56a1.77 1.77 0 0 1-1.78-1.77v-7.18c0-.965.8-1.771 1.78-1.771zm49.82-5.244c0 .992-.8 1.782-1.79 1.782h-3.53c-1.01 0-1.79-.798-1.79-1.782v-7.264h-17.8a3.57 3.57 0 0 1-3.56-3.574v-25.016a3.57 3.57 0 0 1 3.56-3.574h42.71c1.96 0 3.56 1.6 3.56 3.574v25.016a3.57 3.57 0 0 1-3.56 3.574h-17.8v7.264zm48.05-.117v.006c0 .984-.81 1.781-1.77 1.781h-14.26c-.97 0-1.77-.809-1.77-1.781v-.005c0-4.935 3.99-8.935 8.9-8.935s8.9 4 8.9 8.935v-.001z" fill="#959DD3"/><path fill="#9EA3D5" d="M3422 509h864v142h-864zM3422 726h864v142h-864zM3715.28 348.017c2.85 1.968 5.49 3.407 7.9 4.316l-1.81 4.285c-3.34-1.206-6.68-3.11-10-5.713-3.45 1.926-7.26 2.888-11.42 2.888-4.21 0-8.03-1.015-11.46-3.046-3.43-2.032-6.07-4.888-7.94-8.57-1.84-3.681-2.76-7.829-2.76-12.441 0-4.592.93-8.771 2.8-12.537 1.86-3.766 4.5-6.633 7.93-8.601 3.45-1.968 7.3-2.952 11.55-2.952 4.3 0 8.17 1.027 11.62 3.079 3.45 2.031 6.07 4.888 7.87 8.569 1.82 3.661 2.73 7.797 2.73 12.41 0 3.83-.58 7.279-1.75 10.347a21.714 21.714 0 0 1-5.26 7.966zm-13.56-7.871c3.56.994 6.49 2.476 8.8 4.443 3.61-3.3 5.42-8.262 5.42-14.885 0-3.766-.64-7.056-1.93-9.871-1.27-2.814-3.15-4.993-5.62-6.538-2.46-1.565-5.22-2.348-8.29-2.348-4.59 0-8.4 1.576-11.42 4.729-3.03 3.131-4.54 7.818-4.54 14.06 0 6.051 1.49 10.696 4.48 13.933 3 3.237 6.83 4.856 11.48 4.856 2.21 0 4.28-.413 6.23-1.238-1.93-1.248-3.96-2.137-6.1-2.666l1.49-4.475zm59.42-33.674h6.15v26.882c0 4.676-.52 8.389-1.58 11.14-1.06 2.751-2.97 4.994-5.75 6.729-2.75 1.714-6.37 2.57-10.85 2.57-4.36 0-7.93-.751-10.7-2.253-2.77-1.502-4.75-3.671-5.93-6.506-1.19-2.857-1.78-6.75-1.78-11.68v-26.882h6.16v26.85c0 4.042.37 7.025 1.11 8.95.76 1.905 2.05 3.375 3.87 4.412 1.84 1.037 4.08 1.555 6.73 1.555 4.53 0 7.75-1.026 9.68-3.078 1.92-2.053 2.89-5.999 2.89-11.839v-26.85zM3778.63 353v-46.528h6.15V353h-6.15zm50.24-16.313l6.15 1.555c-1.29 5.057-3.61 8.918-6.98 11.584-3.34 2.645-7.44 3.967-12.28 3.967-5.02 0-9.1-1.015-12.25-3.046-3.13-2.053-5.52-5.015-7.17-8.887-1.63-3.872-2.45-8.03-2.45-12.473 0-4.846.92-9.067 2.76-12.664 1.86-3.618 4.5-6.358 7.91-8.22 3.42-1.883 7.19-2.825 11.29-2.825 4.66 0 8.57 1.185 11.75 3.555 3.17 2.37 5.38 5.702 6.63 9.997l-6.06 1.429c-1.08-3.386-2.65-5.851-4.7-7.395-2.05-1.545-4.63-2.317-7.74-2.317-3.58 0-6.57.857-8.98 2.571-2.4 1.713-4.08 4.02-5.05 6.919a27.733 27.733 0 0 0-1.46 8.918c0 3.957.57 7.416 1.71 10.378 1.17 2.941 2.97 5.142 5.4 6.602s5.07 2.19 7.9 2.19c3.45 0 6.37-.995 8.76-2.983 2.39-1.989 4.01-4.941 4.86-8.855zM3842.39 353v-46.528h6.15v23.073l23.11-23.073h8.35l-19.52 18.852L3880.85 353h-8.12l-16.57-23.55-7.62 7.427V353h-6.15zm52.97 0l17.87-46.528h6.63L3938.9 353h-7.01l-5.43-14.092h-19.45L3901.9 353h-6.54zm13.42-19.106h15.78l-4.86-12.886c-1.48-3.915-2.58-7.131-3.3-9.649a58.912 58.912 0 0 1-2.51 8.887l-5.11 13.648zM3943.82 353v-46.528h16.03c3.62 0 6.38.222 8.28.666 2.67.614 4.95 1.725 6.83 3.333 2.45 2.073 4.28 4.729 5.49 7.966 1.23 3.216 1.84 6.898 1.84 11.045 0 3.533-.41 6.665-1.24 9.394-.82 2.73-1.88 4.994-3.17 6.792-1.29 1.778-2.71 3.185-4.25 4.222-1.53 1.015-3.38 1.788-5.56 2.317-2.16.529-4.64.793-7.46.793h-16.79zm6.16-5.491h9.93c3.07 0 5.47-.285 7.21-.857 1.76-.571 3.15-1.375 4.19-2.412 1.46-1.46 2.59-3.417 3.39-5.871.83-2.476 1.24-5.47 1.24-8.982 0-4.867-.8-8.601-2.41-11.204-1.59-2.624-3.52-4.38-5.81-5.268-1.65-.635-4.3-.953-7.96-.953h-9.78v35.547zM3990.8 353v-46.528h16.02c3.62 0 6.38.222 8.29.666 2.66.614 4.94 1.725 6.82 3.333 2.46 2.073 4.29 4.729 5.49 7.966 1.23 3.216 1.84 6.898 1.84 11.045 0 3.533-.41 6.665-1.24 9.394-.82 2.73-1.88 4.994-3.17 6.792-1.29 1.778-2.71 3.185-4.25 4.222-1.53 1.015-3.38 1.788-5.56 2.317-2.15.529-4.64.793-7.45.793h-16.79zm6.15-5.491h9.94c3.07 0 5.47-.285 7.2-.857 1.76-.571 3.15-1.375 4.19-2.412 1.46-1.46 2.59-3.417 3.4-5.871.82-2.476 1.24-5.47 1.24-8.982 0-4.867-.81-8.601-2.42-11.204-1.58-2.624-3.52-4.38-5.81-5.268-1.65-.635-4.3-.953-7.96-.953h-9.78v35.547z"/><path d="M3512.52 604v-35.355h-13.21v-4.731h31.78v4.731h-13.27V604h-5.3zm36.12-3.582c-1.82 1.549-3.58 2.643-5.28 3.281-1.67.638-3.48.957-5.41.957-3.19 0-5.64-.774-7.36-2.324-1.71-1.568-2.57-3.564-2.57-5.988 0-1.422.32-2.716.96-3.883.66-1.185 1.5-2.133 2.54-2.844a12.22 12.22 0 0 1 3.56-1.613c.96-.255 2.42-.501 4.37-.738 3.98-.474 6.9-1.039 8.78-1.696.02-.674.03-1.103.03-1.285 0-2.005-.47-3.418-1.4-4.238-1.25-1.112-3.12-1.668-5.6-1.668-2.32 0-4.03.41-5.14 1.23-1.1.802-1.91 2.233-2.44 4.293l-4.81-.656c.44-2.06 1.16-3.719 2.16-4.976 1-1.277 2.45-2.252 4.35-2.926 1.89-.693 4.09-1.039 6.59-1.039 2.48 0 4.49.291 6.04.875 1.55.583 2.69 1.321 3.42 2.215.73.875 1.24 1.987 1.53 3.335.16.839.25 2.352.25 4.54v6.562c0 4.576.1 7.474.3 8.695.22 1.203.64 2.361 1.26 3.473h-5.15c-.51-1.021-.83-2.215-.98-3.582zm-.41-10.992c-1.79.729-4.47 1.349-8.04 1.859-2.02.292-3.45.62-4.29.985-.84.364-1.49.902-1.94 1.613a4.108 4.108 0 0 0-.69 2.324c0 1.313.5 2.406 1.48 3.281 1 .875 2.46 1.313 4.37 1.313 1.9 0 3.59-.41 5.06-1.231 1.48-.838 2.56-1.978 3.26-3.418.53-1.112.79-2.752.79-4.922v-1.804zm10.66 5.906l4.87-.766c.28 1.951 1.03 3.446 2.27 4.485 1.26 1.039 3.01 1.558 5.25 1.558 2.26 0 3.94-.455 5.03-1.367 1.1-.93 1.64-2.014 1.64-3.254 0-1.112-.48-1.987-1.45-2.625-.67-.437-2.35-.993-5.03-1.668-3.61-.911-6.11-1.695-7.52-2.351-1.38-.675-2.44-1.595-3.17-2.762a7.469 7.469 0 0 1-1.07-3.91c0-1.294.3-2.488.88-3.582a8.044 8.044 0 0 1 2.43-2.762c.77-.565 1.81-1.039 3.12-1.422 1.33-.401 2.75-.601 4.27-.601 2.27 0 4.27.328 5.98.984 1.74.656 3.01 1.55 3.83 2.68.82 1.112 1.39 2.607 1.7 4.484l-4.81.656c-.22-1.494-.86-2.661-1.92-3.5-1.04-.838-2.51-1.257-4.43-1.257-2.26 0-3.87.373-4.84 1.121-.96.747-1.45 1.622-1.45 2.625 0 .638.2 1.212.6 1.722.41.529 1.03.966 1.89 1.313.49.182 1.94.601 4.35 1.258 3.48.929 5.9 1.695 7.27 2.297 1.39.583 2.47 1.44 3.26 2.57.78 1.13 1.17 2.534 1.17 4.211 0 1.64-.48 3.19-1.45 4.648-.95 1.44-2.32 2.561-4.13 3.363-1.8.784-3.84 1.176-6.12 1.176-3.77 0-6.66-.784-8.64-2.351-1.97-1.568-3.23-3.892-3.78-6.973zm30 8.668v-40.086h4.92v22.859l11.65-11.812h6.37l-11.1 10.773L3612.95 604h-6.07l-9.59-14.848-3.48 3.336V604h-4.92zm44.13 0v-40.086h5.44l21.06 31.473v-31.473h5.09V604h-5.45l-21.05-31.5V604h-5.09zm58.85-3.582c-1.83 1.549-3.58 2.643-5.28 3.281-1.68.638-3.48.957-5.41.957-3.19 0-5.65-.774-7.36-2.324-1.71-1.568-2.57-3.564-2.57-5.988 0-1.422.32-2.716.96-3.883.65-1.185 1.5-2.133 2.54-2.844a12.162 12.162 0 0 1 3.55-1.613c.97-.255 2.43-.501 4.38-.738 3.97-.474 6.9-1.039 8.78-1.696.02-.674.02-1.103.02-1.285 0-2.005-.46-3.418-1.39-4.238-1.26-1.112-3.13-1.668-5.61-1.668-2.31 0-4.02.41-5.14 1.23-1.09.802-1.9 2.233-2.43 4.293l-4.81-.656c.44-2.06 1.16-3.719 2.16-4.976 1-1.277 2.45-2.252 4.35-2.926 1.89-.693 4.09-1.039 6.59-1.039 2.47 0 4.49.291 6.04.875 1.55.583 2.69 1.321 3.42 2.215.73.875 1.24 1.987 1.53 3.335.16.839.24 2.352.24 4.54v6.562c0 4.576.1 7.474.3 8.695.22 1.203.64 2.361 1.26 3.473h-5.14c-.51-1.021-.84-2.215-.98-3.582zm-.41-10.992c-1.79.729-4.47 1.349-8.04 1.859-2.03.292-3.46.62-4.3.985-.83.364-1.48.902-1.94 1.613a4.179 4.179 0 0 0-.68 2.324c0 1.313.49 2.406 1.48 3.281 1 .875 2.46 1.313 4.37 1.313 1.9 0 3.58-.41 5.06-1.231 1.48-.838 2.56-1.978 3.25-3.418.53-1.112.8-2.752.8-4.922v-1.804zM3704.09 604v-29.039h4.4v4.074c.91-1.422 2.13-2.561 3.64-3.418 1.51-.875 3.23-1.312 5.17-1.312 2.15 0 3.91.446 5.27 1.34 1.39.893 2.36 2.141 2.93 3.746 2.3-3.391 5.29-5.086 8.97-5.086 2.88 0 5.09.802 6.64 2.406 1.55 1.586 2.33 4.038 2.33 7.355V604h-4.9v-18.293c0-1.969-.16-3.381-.49-4.238-.31-.875-.88-1.577-1.72-2.106-.84-.528-1.82-.793-2.95-.793-2.05 0-3.74.684-5.09 2.051-1.35 1.349-2.02 3.518-2.02 6.508V604h-4.93v-18.867c0-2.188-.4-3.828-1.2-4.922-.8-1.094-2.11-1.641-3.94-1.641-1.38 0-2.67.365-3.85 1.094-1.17.729-2.02 1.796-2.55 3.199-.52 1.404-.79 3.427-.79 6.071V604h-4.92zm66.53-9.352l5.08.629c-.8 2.972-2.28 5.278-4.45 6.918-2.17 1.641-4.94 2.461-8.32 2.461-4.24 0-7.62-1.303-10.11-3.91-2.48-2.625-3.72-6.298-3.72-11.019 0-4.886 1.26-8.678 3.77-11.375 2.52-2.698 5.78-4.047 9.79-4.047 3.88 0 7.05 1.321 9.52 3.965 2.46 2.643 3.69 6.362 3.69 11.156 0 .291-.01.729-.03 1.312h-21.66c.19 3.19 1.09 5.633 2.71 7.328 1.62 1.696 3.65 2.543 6.07 2.543 1.81 0 3.35-.474 4.62-1.421 1.28-.948 2.29-2.461 3.04-4.54zm-16.16-7.957h16.21c-.22-2.442-.84-4.274-1.86-5.496-1.57-1.896-3.6-2.843-6.1-2.843-2.26 0-4.16.756-5.71 2.269-1.53 1.513-2.38 3.537-2.54 6.07zM3502.16 817v-40.086h7.98l9.49 28.383c.87 2.643 1.51 4.621 1.91 5.933.46-1.458 1.17-3.6 2.14-6.425l9.59-27.891h7.14V817h-5.11v-33.551L3523.65 817h-4.79l-11.59-34.125V817h-5.11zm46.21-34.426v-5.66h4.92v5.66h-4.92zm0 34.426v-29.039h4.92V817h-4.92zm12.44 0v-29.039h4.43v4.129c2.13-3.19 5.21-4.785 9.24-4.785 1.75 0 3.35.319 4.81.957 1.48.62 2.58 1.44 3.31 2.461.73 1.02 1.24 2.233 1.53 3.636.19.912.28 2.507.28 4.786V817h-4.93v-17.664c0-2.005-.19-3.5-.57-4.484-.38-1.003-1.07-1.796-2.05-2.379-.97-.602-2.11-.903-3.42-.903-2.09 0-3.91.666-5.44 1.996-1.51 1.331-2.27 3.856-2.27 7.575V817h-4.92zm50.2 0v-4.266c-2.26 3.282-5.33 4.922-9.21 4.922-1.72 0-3.32-.328-4.82-.984-1.47-.656-2.58-1.477-3.3-2.461-.72-1.003-1.22-2.224-1.51-3.664-.2-.966-.3-2.498-.3-4.594v-17.992h4.92v16.105c0 2.571.1 4.302.3 5.196.31 1.294.97 2.315 1.97 3.062 1.01.729 2.24 1.094 3.72 1.094a8.2 8.2 0 0 0 4.16-1.121c1.29-.766 2.2-1.796 2.73-3.09.55-1.312.82-3.208.82-5.687v-15.559h4.92V817h-4.4zm22.89-4.402l.71 4.347c-1.39.292-2.63.438-3.72.438-1.79 0-3.17-.283-4.16-.848-.98-.565-1.67-1.303-2.07-2.215-.4-.929-.61-2.871-.61-5.824v-16.707h-3.6v-3.828h3.6v-7.191l4.9-2.954v10.145h4.95v3.828h-4.95v16.981c0 1.403.08 2.306.25 2.707.18.401.46.72.84.957.4.237.97.355 1.7.355.55 0 1.27-.064 2.16-.191zm24.72-4.95l5.08.629c-.8 2.972-2.28 5.278-4.45 6.918-2.17 1.641-4.94 2.461-8.32 2.461-4.24 0-7.62-1.303-10.11-3.91-2.48-2.625-3.72-6.298-3.72-11.019 0-4.886 1.26-8.678 3.77-11.375 2.52-2.698 5.78-4.047 9.79-4.047 3.88 0 7.05 1.321 9.52 3.965 2.46 2.643 3.69 6.362 3.69 11.156 0 .291-.01.729-.03 1.312h-21.66c.19 3.19 1.09 5.633 2.71 7.328 1.62 1.696 3.65 2.543 6.07 2.543 1.81 0 3.35-.474 4.62-1.421 1.28-.948 2.29-2.461 3.04-4.54zm-16.16-7.957h16.21c-.22-2.442-.84-4.274-1.86-5.496-1.57-1.896-3.6-2.843-6.1-2.843-2.26 0-4.16.756-5.71 2.269-1.53 1.513-2.38 3.537-2.54 6.07zm25.48 8.641l4.87-.766c.27 1.951 1.03 3.446 2.27 4.485 1.26 1.039 3.01 1.558 5.25 1.558 2.26 0 3.94-.455 5.03-1.367 1.09-.93 1.64-2.014 1.64-3.254 0-1.112-.48-1.987-1.45-2.625-.67-.437-2.35-.993-5.03-1.668-3.61-.911-6.12-1.695-7.52-2.351-1.39-.675-2.44-1.595-3.17-2.762a7.469 7.469 0 0 1-1.07-3.91c0-1.294.29-2.488.88-3.582a8.044 8.044 0 0 1 2.43-2.762c.77-.565 1.81-1.039 3.12-1.422 1.33-.401 2.75-.601 4.26-.601 2.28 0 4.28.328 5.99.984 1.73.656 3.01 1.55 3.83 2.68.82 1.112 1.38 2.607 1.69 4.484l-4.81.656c-.22-1.494-.85-2.661-1.91-3.5-1.04-.838-2.52-1.257-4.43-1.257-2.26 0-3.88.373-4.84 1.121-.97.747-1.45 1.622-1.45 2.625 0 .638.2 1.212.6 1.722.4.529 1.03.966 1.89 1.313.49.182 1.94.601 4.35 1.258 3.48.929 5.9 1.695 7.27 2.297 1.38.583 2.47 1.44 3.25 2.57.79 1.13 1.18 2.534 1.18 4.211 0 1.64-.48 3.19-1.45 4.648-.95 1.44-2.32 2.561-4.13 3.363-1.8.784-3.85 1.176-6.12 1.176-3.78 0-6.66-.784-8.65-2.351-1.96-1.568-3.22-3.892-3.77-6.973z" fill="#756D98"/><rect x="3454.5" y="954.5" width="226" height="226" rx="12.5" stroke="#9EA3D5" stroke-width="5"/><rect x="3743.5" y="953.5" width="226" height="226" rx="12.5" stroke="#636889" stroke-width="5"/><rect x="4032.5" y="952.5" width="226" height="226" rx="12.5" stroke="#636889" stroke-width="5"/><rect x="3743.5" y="1228.5" width="226" height="226" rx="12.5" stroke="#636889" stroke-width="5"/><rect x="3453.5" y="1228.5" width="226" height="226" rx="12.5" stroke="#636889" stroke-width="5"/><rect x="4032.5" y="1227.5" width="226" height="226" rx="12.5" stroke="#636889" stroke-width="5"/><rect x="3678.5" y="1545.5" width="138" height="135" rx="20.5" stroke="#7983C3" stroke-width="5"/><path fill-rule="evenodd" clip-rule="evenodd" d="M3690 1544.83c-8.23 3.5-14 11.66-14 21.17v94c0 9.51 5.77 17.67 14 21.17v-136.34z" fill="#7983C3"/><rect x="3892.5" y="1545.5" width="138" height="135" rx="20.5" stroke="#736C6E" stroke-width="5"/><path fill-rule="evenodd" clip-rule="evenodd" d="M3904 1544.83c-8.23 3.5-14 11.66-14 21.17v94c0 9.51 5.77 17.67 14 21.17v-136.34z" fill="#736C6E"/><rect x="4106.5" y="1545.5" width="138" height="135" rx="20.5" stroke="#6D5B72" stroke-width="5"/><path fill-rule="evenodd" clip-rule="evenodd" d="M4118 1544.83c-8.23 3.5-14 11.66-14 21.17v94c0 9.51 5.77 17.67 14 21.17v-136.34z" fill="#6D5B72"/><rect x="3464.5" y="1545.5" width="138" height="135" rx="20.5" stroke="#506875" stroke-width="5"/><path fill-rule="evenodd" clip-rule="evenodd" d="M3476 1544.83c-8.23 3.5-14 11.66-14 21.17v94c0 9.51 5.77 17.67 14 21.17v-136.34z" fill="#516A75"/><circle cx="4181.5" cy="1956.5" r="107.5" fill="#369F69"/><path fill-rule="evenodd" clip-rule="evenodd" d="M4141.95 1961.44c-2.73 0-4.95-2.21-4.95-4.94a4.94 4.94 0 0 1 4.95-4.94h34.61v-34.61c0-2.73 2.21-4.95 4.94-4.95a4.94 4.94 0 0 1 4.94 4.95v34.61h34.61c2.73 0 4.95 2.21 4.95 4.94a4.94 4.94 0 0 1-4.95 4.94h-34.61v34.61c0 2.73-2.21 4.95-4.94 4.95a4.94 4.94 0 0 1-4.94-4.95v-34.61h-34.61z" fill="#fff"/><g filter="url(#filter10_d)"><path d="M196.853 2335v-41.04h-15.33v-5.49h36.88v5.49H203.01V2335h-6.157zm28.945 0v-46.53h6.158V2335h-6.158zm16.853 0v-46.53h9.268l11.013 32.95c1.016 3.06 1.756 5.36 2.222 6.88.529-1.69 1.354-4.18 2.475-7.46l11.141-32.37h8.283V2335h-5.935v-38.94l-13.52 38.94h-5.555l-13.457-39.61V2335h-5.935zm54.463 0v-46.53h33.643v5.49h-27.486v14.25h25.74v5.46h-25.74v15.84h28.565v5.49h-34.722zm43.323 0v-46.53h20.63c4.147 0 7.3.42 9.458 1.27 2.158.83 3.883 2.3 5.173 4.41 1.291 2.12 1.936 4.46 1.936 7.02 0 3.3-1.068 6.08-3.205 8.34-2.137 2.27-5.438 3.71-9.903 4.32 1.63.78 2.867 1.56 3.714 2.32 1.798 1.65 3.502 3.71 5.11 6.19l8.093 12.66h-7.744l-6.157-9.68c-1.799-2.79-3.28-4.93-4.444-6.41-1.164-1.48-2.211-2.52-3.142-3.11-.91-.59-1.841-1.01-2.793-1.24-.698-.15-1.841-.22-3.428-.22h-7.141V2335h-6.157zm6.157-25.99h13.235c2.814 0 5.015-.29 6.602-.86 1.587-.59 2.793-1.52 3.618-2.79a7.639 7.639 0 0 0 1.238-4.19c0-2.2-.804-4.01-2.412-5.43-1.587-1.42-4.105-2.13-7.554-2.13h-14.727v15.4z" fill="#D0D2E0"/></g><g filter="url(#filter11_d)"><path d="M2079.76 2305v-41.52h28.01v4.9h-22.52v12.86h19.49v4.9h-19.49V2305h-5.49zm34.55-35.66v-5.86h5.1v5.86h-5.1zm0 35.66v-30.08h5.1V2305h-5.1zm12.83 0v-30.08h4.59v4.56c1.17-2.13 2.24-3.54 3.22-4.22 1-.68 2.1-1.02 3.29-1.02 1.72 0 3.46.55 5.24 1.65l-1.76 4.73c-1.24-.74-2.49-1.11-3.74-1.11-1.11 0-2.11.34-3 1.02-.88.66-1.52 1.59-1.9 2.78-.56 1.81-.84 3.79-.84 5.94V2305h-5.1zm17.33-8.98l5.04-.79c.28 2.02 1.07 3.57 2.35 4.64 1.3 1.08 3.12 1.62 5.44 1.62 2.34 0 4.08-.47 5.21-1.42 1.13-.96 1.7-2.08 1.7-3.37 0-1.15-.5-2.06-1.5-2.72-.7-.45-2.44-1.03-5.21-1.72-3.74-.95-6.34-1.76-7.79-2.44-1.44-.7-2.53-1.65-3.29-2.86a7.794 7.794 0 0 1-1.1-4.05c0-1.34.3-2.58.91-3.71.62-1.15 1.46-2.1 2.52-2.86.79-.59 1.87-1.08 3.22-1.47 1.38-.42 2.86-.63 4.42-.63 2.36 0 4.43.34 6.2 1.02 1.8.68 3.12 1.61 3.97 2.78.85 1.15 1.43 2.7 1.76 4.64l-4.99.68c-.23-1.54-.89-2.75-1.98-3.62-1.08-.87-2.61-1.3-4.59-1.3-2.34 0-4.01.38-5.01 1.16-1 .77-1.5 1.68-1.5 2.72 0 .66.2 1.25.62 1.78.42.55 1.07 1 1.95 1.36.51.19 2.01.62 4.51 1.3 3.6.96 6.11 1.76 7.53 2.38 1.44.6 2.56 1.49 3.37 2.66.81 1.17 1.22 2.63 1.22 4.36 0 1.7-.5 3.31-1.5 4.82-.98 1.49-2.41 2.65-4.28 3.48-1.87.81-3.98 1.22-6.34 1.22-3.91 0-6.89-.81-8.95-2.44-2.04-1.62-3.34-4.03-3.91-7.22zm42.17 4.42l.74 4.5c-1.44.31-2.72.46-3.86.46-1.85 0-3.28-.3-4.3-.88-1.02-.59-1.74-1.35-2.15-2.3-.42-.96-.63-2.97-.63-6.03v-17.3h-3.73v-3.97h3.73v-7.44l5.07-3.06v10.5h5.13v3.97h-5.13v17.59c0 1.45.09 2.38.26 2.8.19.41.48.75.88.99.41.25 1 .37 1.75.37.57 0 1.31-.07 2.24-.2zm31.29 4.56v-36.62h-13.68v-4.9h32.91v4.9h-13.73V2305h-5.5zm37.41-3.71c-1.88 1.6-3.71 2.74-5.46 3.4-1.74.66-3.61.99-5.61.99-3.3 0-5.84-.8-7.62-2.41-1.77-1.62-2.66-3.69-2.66-6.2 0-1.47.33-2.81.99-4.02.68-1.23 1.56-2.21 2.64-2.95 1.09-.73 2.32-1.29 3.68-1.67 1-.26 2.51-.52 4.53-.76 4.11-.49 7.14-1.08 9.09-1.76.02-.7.03-1.14.03-1.33 0-2.08-.48-3.54-1.45-4.39-1.3-1.15-3.24-1.73-5.8-1.73-2.4 0-4.18.43-5.33 1.28-1.13.83-1.97 2.31-2.52 4.44l-4.98-.68c.45-2.13 1.2-3.85 2.24-5.15 1.03-1.32 2.53-2.33 4.5-3.03 1.96-.72 4.24-1.08 6.82-1.08 2.57 0 4.66.31 6.26.91 1.61.6 2.79 1.37 3.54 2.29.76.91 1.29 2.06 1.59 3.46.17.87.25 2.43.25 4.7v6.8c0 4.74.11 7.74.31 9 .23 1.25.67 2.45 1.31 3.6h-5.33c-.53-1.06-.87-2.29-1.02-3.71zm-.42-11.38c-1.85.75-4.63 1.39-8.33 1.92-2.09.3-3.58.64-4.44 1.02-.87.38-1.54.94-2.01 1.67-.48.72-.71 1.52-.71 2.41 0 1.36.51 2.49 1.53 3.4 1.04.9 2.55 1.36 4.53 1.36 1.96 0 3.71-.43 5.24-1.28 1.53-.87 2.65-2.05 3.37-3.54.55-1.15.82-2.85.82-5.1v-1.86zm11.04 6.11l5.04-.79c.29 2.02 1.07 3.57 2.36 4.64 1.3 1.08 3.11 1.62 5.43 1.62 2.34 0 4.08-.47 5.21-1.42 1.14-.96 1.7-2.08 1.7-3.37 0-1.15-.5-2.06-1.5-2.72-.7-.45-2.43-1.03-5.21-1.72-3.74-.95-6.33-1.76-7.79-2.44-1.43-.7-2.53-1.65-3.28-2.86a7.71 7.71 0 0 1-1.11-4.05c0-1.34.31-2.58.91-3.71.62-1.15 1.46-2.1 2.52-2.86.79-.59 1.87-1.08 3.23-1.47 1.38-.42 2.85-.63 4.42-.63 2.36 0 4.42.34 6.2 1.02 1.79.68 3.11 1.61 3.96 2.78.85 1.15 1.44 2.7 1.76 4.64l-4.98.68c-.23-1.54-.89-2.75-1.99-3.62-1.07-.87-2.6-1.3-4.59-1.3-2.34 0-4.01.38-5.01 1.16-1 .77-1.5 1.68-1.5 2.72 0 .66.21 1.25.62 1.78.42.55 1.07 1 1.96 1.36.51.19 2.01.62 4.5 1.3 3.61.96 6.12 1.76 7.53 2.38 1.44.6 2.56 1.49 3.37 2.66.82 1.17 1.22 2.63 1.22 4.36 0 1.7-.5 3.31-1.5 4.82-.98 1.49-2.41 2.65-4.27 3.48-1.87.81-3.99 1.22-6.35 1.22-3.91 0-6.89-.81-8.95-2.44-2.04-1.62-3.34-4.03-3.91-7.22zm31.07 8.98v-41.52h5.1v23.68l12.06-12.24h6.6l-11.5 11.16 12.66 18.92h-6.28l-9.94-15.38-3.6 3.46V2305h-5.1z" fill="#D0D2E0"/></g><circle cx="2199" cy="2462" r="80.5" stroke="#7F7EA8" stroke-width="5"/><g filter="url(#filter12_d)"><path d="M477.407 2602.52c0-4.9.501-8.85 1.501-11.83 1.02-3.01 2.521-5.32 4.503-6.94 2.001-1.63 4.513-2.44 7.533-2.44 2.228 0 4.182.46 5.863 1.36 1.68.89 3.068 2.18 4.163 3.88 1.095 1.68 1.954 3.74 2.577 6.18.623 2.41.934 5.68.934 9.79 0 4.88-.5 8.81-1.501 11.81-1 2.99-2.501 5.3-4.502 6.94-1.983 1.63-4.494 2.44-7.534 2.44-4.002 0-7.146-1.44-9.43-4.31-2.738-3.45-4.107-9.08-4.107-16.88zm5.239 0c0 6.82.793 11.36 2.379 13.63 1.605 2.24 3.578 3.37 5.919 3.37 2.341 0 4.305-1.14 5.891-3.4 1.605-2.27 2.407-6.8 2.407-13.6 0-6.83-.802-11.37-2.407-13.62-1.586-2.24-3.568-3.37-5.947-3.37-2.341 0-4.211.99-5.608 2.98-1.756 2.53-2.634 7.2-2.634 14.01zm27.046 0c0-4.9.501-8.85 1.501-11.83 1.02-3.01 2.521-5.32 4.503-6.94 2.002-1.63 4.513-2.44 7.533-2.44 2.228 0 4.182.46 5.863 1.36 1.68.89 3.068 2.18 4.163 3.88 1.095 1.68 1.954 3.74 2.577 6.18.623 2.41.935 5.68.935 9.79 0 4.88-.501 8.81-1.501 11.81-1.001 2.99-2.502 5.3-4.503 6.94-1.983 1.63-4.494 2.44-7.534 2.44-4.002 0-7.146-1.44-9.43-4.31-2.738-3.45-4.107-9.08-4.107-16.88zm5.24 0c0 6.82.793 11.36 2.379 13.63 1.604 2.24 3.577 3.37 5.918 3.37 2.342 0 4.305-1.14 5.891-3.4 1.605-2.27 2.407-6.8 2.407-13.6 0-6.83-.802-11.37-2.407-13.62-1.586-2.24-3.568-3.37-5.947-3.37-2.341 0-4.21.99-5.608 2.98-1.755 2.53-2.633 7.2-2.633 14.01zm29.878-3.79v-5.81h5.805v5.81h-5.805zm0 24.27v-5.81h5.805v5.81h-5.805zm32.511 0h-5.097v-32.48c-1.228 1.17-2.842 2.34-4.843 3.51-1.983 1.17-3.767 2.05-5.353 2.63v-4.93c2.851-1.34 5.343-2.96 7.477-4.87 2.133-1.9 3.644-3.75 4.531-5.55h3.285V2623zm13.849-9.6l4.899-.45c.416 2.3 1.209 3.97 2.379 5.01 1.171 1.04 2.672 1.56 4.503 1.56 1.567 0 2.936-.36 4.107-1.08a8.829 8.829 0 0 0 2.917-2.86c.755-1.21 1.387-2.83 1.897-4.87s.765-4.12.765-6.23c0-.23-.01-.57-.029-1.02-1.019 1.62-2.416 2.94-4.191 3.96-1.756 1-3.663 1.5-5.721 1.5-3.436 0-6.343-1.24-8.722-3.73-2.379-2.5-3.569-5.78-3.569-9.86 0-4.21 1.237-7.6 3.71-10.17 2.492-2.56 5.608-3.85 9.346-3.85 2.7 0 5.164.73 7.392 2.18 2.246 1.46 3.946 3.53 5.097 6.23 1.171 2.68 1.756 6.57 1.756 11.67 0 5.31-.576 9.54-1.727 12.69-1.152 3.13-2.87 5.52-5.155 7.16-2.265 1.65-4.928 2.47-7.986 2.47-3.248 0-5.9-.9-7.958-2.69-2.058-1.81-3.295-4.35-3.71-7.62zm20.872-18.32c0-2.93-.784-5.25-2.351-6.97-1.548-1.72-3.417-2.58-5.607-2.58-2.266 0-4.239.93-5.919 2.78-1.68 1.85-2.52 4.25-2.52 7.19 0 2.64.793 4.8 2.378 6.46 1.605 1.64 3.578 2.46 5.919 2.46 2.36 0 4.296-.82 5.806-2.46 1.529-1.66 2.294-3.96 2.294-6.88z" fill="#DBDBEF"/></g><path fill="#787FA1" d="M654 2588h100v36H654z"/><path fill="#ADACC7" d="M754 2588h2986v36H754z"/><defs><filter id="filter0_d" x="3691.32" y="2490.31" width="336.164" height="242.396" filterUnits="userSpaceOnUse" color-interpolation-filters="sRGB"><feFlood flood-opacity="0" result="BackgroundImageFix"/><feColorMatrix in="SourceAlpha" values="0 0 0 0 0 0 0 0 0 0 0 0 0 0 0 0 0 0 127 0"/><feOffset dx="10" dy="10"/><feGaussianBlur stdDeviation="50"/><feColorMatrix values="0 0 0 0 0 0 0 0 0 0 0 0 0 0 0 0 0 0 0.25 0"/><feBlend in2="BackgroundImageFix" result="effect1_dropShadow"/><feBlend in="SourceGraphic" in2="effect1_dropShadow" result="shape"/></filter><filter id="filter1_f" x="2429.9" y="2437.9" width="62.2" height="62.2" filterUnits="userSpaceOnUse" color-interpolation-filters="sRGB"><feFlood flood-opacity="0" result="BackgroundImageFix"/><feBlend in="SourceGraphic" in2="BackgroundImageFix" result="shape"/><feGaussianBlur stdDeviation=".05" result="effect1_foregroundBlur"/></filter><filter id="filter2_f" x="1906.9" y="2437.9" width="62.2" height="62.2" filterUnits="userSpaceOnUse" color-interpolation-filters="sRGB"><feFlood flood-opacity="0" result="BackgroundImageFix"/><feBlend in="SourceGraphic" in2="BackgroundImageFix" result="shape"/><feGaussianBlur stdDeviation=".05" result="effect1_foregroundBlur"/></filter><filter id="filter3_d" x="244.523" y=".646" width="561.436" height="248.147" filterUnits="userSpaceOnUse" color-interpolation-filters="sRGB"><feFlood flood-opacity="0" result="BackgroundImageFix"/><feColorMatrix in="SourceAlpha" values="0 0 0 0 0 0 0 0 0 0 0 0 0 0 0 0 0 0 127 0"/><feOffset dx="10" dy="10"/><feGaussianBlur stdDeviation="50"/><feColorMatrix values="0 0 0 0 0 0 0 0 0 0 0 0 0 0 0 0 0 0 0.25 0"/><feBlend in2="BackgroundImageFix" result="effect1_dropShadow"/><feBlend in="SourceGraphic" in2="effect1_dropShadow" result="shape"/></filter><filter id="filter4_d" x="255.512" y="855.63" width="429.668" height="240.015" filterUnits="userSpaceOnUse" color-interpolation-filters="sRGB"><feFlood flood-opacity="0" result="BackgroundImageFix"/><feColorMatrix in="SourceAlpha" values="0 0 0 0 0 0 0 0 0 0 0 0 0 0 0 0 0 0 127 0"/><feOffset dx="10" dy="10"/><feGaussianBlur stdDeviation="50"/><feColorMatrix values="0 0 0 0 0 0 0 0 0 0 0 0 0 0 0 0 0 0 0.25 0"/><feBlend in2="BackgroundImageFix" result="effect1_dropShadow"/><feBlend in="SourceGraphic" in2="effect1_dropShadow" result="shape"/></filter><filter id="filter5_d" x="255.573" y="935.812" width="340.971" height="230.7" filterUnits="userSpaceOnUse" color-interpolation-filters="sRGB"><feFlood flood-opacity="0" result="BackgroundImageFix"/><feColorMatrix in="SourceAlpha" values="0 0 0 0 0 0 0 0 0 0 0 0 0 0 0 0 0 0 127 0"/><feOffset dx="10" dy="10"/><feGaussianBlur stdDeviation="50"/><feColorMatrix values="0 0 0 0 0 0 0 0 0 0 0 0 0 0 0 0 0 0 0.25 0"/><feBlend in2="BackgroundImageFix" result="effect1_dropShadow"/><feBlend in="SourceGraphic" in2="effect1_dropShadow" result="shape"/></filter><filter id="filter6_d" x="1072.92" y="855.63" width="520.037" height="240.015" filterUnits="userSpaceOnUse" color-interpolation-filters="sRGB"><feFlood flood-opacity="0" result="BackgroundImageFix"/><feColorMatrix in="SourceAlpha" values="0 0 0 0 0 0 0 0 0 0 0 0 0 0 0 0 0 0 127 0"/><feOffset dx="10" dy="10"/><feGaussianBlur stdDeviation="50"/><feColorMatrix values="0 0 0 0 0 0 0 0 0 0 0 0 0 0 0 0 0 0 0.25 0"/><feBlend in2="BackgroundImageFix" result="effect1_dropShadow"/><feBlend in="SourceGraphic" in2="effect1_dropShadow" result="shape"/></filter><filter id="filter7_d" x="1077.57" y="935.812" width="340.971" height="230.7" filterUnits="userSpaceOnUse" color-interpolation-filters="sRGB"><feFlood flood-opacity="0" result="BackgroundImageFix"/><feColorMatrix in="SourceAlpha" values="0 0 0 0 0 0 0 0 0 0 0 0 0 0 0 0 0 0 127 0"/><feOffset dx="10" dy="10"/><feGaussianBlur stdDeviation="50"/><feColorMatrix values="0 0 0 0 0 0 0 0 0 0 0 0 0 0 0 0 0 0 0.25 0"/><feBlend in2="BackgroundImageFix" result="effect1_dropShadow"/><feBlend in="SourceGraphic" in2="effect1_dropShadow" result="shape"/></filter><filter id="filter8_d" x="1894.29" y="855.63" width="451.313" height="240.015" filterUnits="userSpaceOnUse" color-interpolation-filters="sRGB"><feFlood flood-opacity="0" result="BackgroundImageFix"/><feColorMatrix in="SourceAlpha" values="0 0 0 0 0 0 0 0 0 0 0 0 0 0 0 0 0 0 127 0"/><feOffset dx="10" dy="10"/><feGaussianBlur stdDeviation="50"/><feColorMatrix values="0 0 0 0 0 0 0 0 0 0 0 0 0 0 0 0 0 0 0.25 0"/><feBlend in2="BackgroundImageFix" result="effect1_dropShadow"/><feBlend in="SourceGraphic" in2="effect1_dropShadow" result="shape"/></filter><filter id="filter9_d" x="1894.27" y="935.812" width="344.276" height="230.7" filterUnits="userSpaceOnUse" color-interpolation-filters="sRGB"><feFlood flood-opacity="0" result="BackgroundImageFix"/><feColorMatrix in="SourceAlpha" values="0 0 0 0 0 0 0 0 0 0 0 0 0 0 0 0 0 0 127 0"/><feOffset dx="10" dy="10"/><feGaussianBlur stdDeviation="50"/><feColorMatrix values="0 0 0 0 0 0 0 0 0 0 0 0 0 0 0 0 0 0 0.25 0"/><feBlend in2="BackgroundImageFix" result="effect1_dropShadow"/><feBlend in="SourceGraphic" in2="effect1_dropShadow" result="shape"/></filter><filter id="filter10_d" x="91.523" y="2198.47" width="399.919" height="246.528" filterUnits="userSpaceOnUse" color-interpolation-filters="sRGB"><feFlood flood-opacity="0" result="BackgroundImageFix"/><feColorMatrix in="SourceAlpha" values="0 0 0 0 0 0 0 0 0 0 0 0 0 0 0 0 0 0 127 0"/><feOffset dx="10" dy="10"/><feGaussianBlur stdDeviation="50"/><feColorMatrix values="0 0 0 0 0 0 0 0 0 0 0 0 0 0 0 0 0 0 0.25 0"/><feBlend in2="BackgroundImageFix" result="effect1_dropShadow"/><feBlend in="SourceGraphic" in2="effect1_dropShadow" result="shape"/></filter><filter id="filter11_d" x="1989.76" y="2173.48" width="442.195" height="242.197" filterUnits="userSpaceOnUse" color-interpolation-filters="sRGB"><feFlood flood-opacity="0" result="BackgroundImageFix"/><feColorMatrix in="SourceAlpha" values="0 0 0 0 0 0 0 0 0 0 0 0 0 0 0 0 0 0 127 0"/><feOffset dx="10" dy="10"/><feGaussianBlur stdDeviation="50"/><feColorMatrix values="0 0 0 0 0 0 0 0 0 0 0 0 0 0 0 0 0 0 0.25 0"/><feBlend in2="BackgroundImageFix" result="effect1_dropShadow"/><feBlend in="SourceGraphic" in2="effect1_dropShadow" result="shape"/></filter><filter id="filter12_d" x="387.407" y="2491.31" width="340.299" height="242.396" filterUnits="userSpaceOnUse" color-interpolation-filters="sRGB"><feFlood flood-opacity="0" result="BackgroundImageFix"/><feColorMatrix in="SourceAlpha" values="0 0 0 0 0 0 0 0 0 0 0 0 0 0 0 0 0 0 127 0"/><feOffset dx="10" dy="10"/><feGaussianBlur stdDeviation="50"/><feColorMatrix values="0 0 0 0 0 0 0 0 0 0 0 0 0 0 0 0 0 0 0.25 0"/><feBlend in2="BackgroundImageFix" result="effect1_dropShadow"/><feBlend in="SourceGraphic" in2="effect1_dropShadow" result="shape"/></filter></defs></svg>