<svg version="1.1" id="Layer_1" xmlns="http://www.w3.org/2000/svg" x="0" y="0" viewBox="1194 169 3000 455" xml:space="preserve"><style>.st0{fill:#192835}</style><path class="st0" d="M4194 624v-5.2c-17.4-7.6-50.6-7.3-69.2-10-9.6-1.5-19-3.8-28.8-4.7-12.7-1.1-25.7 1.5-38.1-.8-19.7-3.6-22.4-19.5-37.2-23.7-10.3-2.9-27.4-.5-39.2-.5-33.8 0-77.7 5-109.2-.6-21.1-3.8-32.8-14.8-56.3-14.7-16.8.1-30.7 5.1-47.1 5.7-26.8.8-51 6.6-77.9 3.6-29.1-3.1-55-3.8-84.5-3.8-29 0-62.8 3.5-90.8-1.1-10.7-1.7-14.1-3.3-26.8-3.6-17.6-.5-35.5-2.1-49.4-9.6-16.2-8.7-28.5-26.4-39.4-38.1-14.8-15.8-28.8-21.3-56.2-26.8-6.5-1.3-18.2-1.9-23.8-5.3-3.7-2.2-2.2-7-7.5-9.2-8.6-3.6-28.3-.3-37.8-.5-18.3-.6-27.5-3-44.1 1.4-13.9 3.6-25 11.5-39.7 14-10.1 1.6-18.1-3.6-27.4 2.2-7.5 4.7.7 12.6-5.6 16.5-5.7 3.6-37.8.7-42.9.7h-36.3c-13 0-26.2-.5-39.1-.3-21.3.4-23.7 6-38.7 14.1-15.3 8.3-34.7 13-50.7 21.2-20 10.1-37 9-62.2 10.4-50.3 2.6-101.7 2.7-150.1 8.8-28.1 3.6-56.6 5.7-85.7 5.6-15.4-.1-28.8-.3-43-4.8-9-2.9-31.4-9.2-38.2-13.5-14.2-8.9-8.1-18.6-32.7-21.3-10.9-1.3-24-.3-35.2-.2-23.4.3-36.9-3.5-52.2-15.1-51.8 8-107 26.5-160.7 26.1-8-.1-17.1-2.6-24.9-.7-7 1.7-13.3 9.3-20.8 12.4-13.6 5.6-27.9 7.2-43.8 7.5-24.9.5-52.6 1.4-77.2-.3-10.1-.6-13.9 3.1-22.1-2.9-6.2-4.5 1-16-2-21.3-55.6-4.6-111.6-8.8-157.9-30.5-18.5-8.7-21.6-10.3-46.3-10-9.7.1-19.3.1-29 .1-21.9 0-44.8-1.6-66.5-.6-28.2 1.3-39.7 10.2-59.9 19.4-9.6 2.7-19.3 5.6-28.9 8.4-7.9 3.1-15.2 6.7-21.9 10.6-12.8 3.3-24.5 2.1-37.9 2-24.7-.2-45.2.4-68.2-7.2-9.9-3.8-19.5-7.8-28.9-12.1-5.1-1.2-10.2-1.3-15.4-.3-11.9-3.1-14.2-7.7-24.9-11.8-18-6.7-41.7-2.2-60.3-10.7-17.7-8.1-5.3-9.4-11.7-21.2-22.9 9.2-52.7 12.9-79.8 13.7-19.4.5-39.7-3.4-55.9 4.4-13.2 6.3-11.3 14.7-20.3 22-8 6.6-25.7 7.3-36.1 14.3-10.6 7.1-8 12.2-23.6 14.3-9 1.2-22.7-.5-32.1-.5V624h3000z"/><path class="st0" d="M1194 531.3l17.3-9L1266 549h-72z"/><path class="st0" d="M1257.9 511.7l-55.2 43.3h140.6z"/><path class="st0" d="M1308.7 475.1c-2.6 1.2-94.7 102.6-94.7 102.6l229.3 8.7-134.6-111.3z"/><path class="st0" d="M1572 560.3c-20-8-133.3-103.8-133.3-103.8L1266 599.7l356.7-13.3-50.7-26.1z"/><path class="st0" d="M1374 465.7l-63.3 18.6 50 56 83.6-55.3zM1460 495l36-19.9 78 44.6h-150.7z"/><path class="st0" d="M1554.7 497.4l-68 42.9 87.3 2.9 70.7 2.5z"/><path class="st0" d="M1615.3 519.7l98 20.6-174-3.3z"/><path class="st0" d="M1713.3 511.3l-106 33.1 193.4 1.3z"/><path class="st0" d="M1740 493l-74.7 65.3 184-3.3z"/><path class="st0" d="M1777.3 480.3c-3.3.7-128.7 82-128.7 82l272-7.3-143.3-74.7z"/><path class="st0" d="M1800.7 469l-39.4 42.3 168.7-3z"/><path class="st0" d="M1861.3 480.3l-70.6 45.4 183.3-6z"/><path class="st0" d="M1885.8 477l-33 16s175.7 29.1 170 26.5-137-42.5-137-42.5z"/><path class="st0" d="M1919.3 482l-19.8 11.5 50.3 4.8zM2099.5 526.6L2160 574h-177z"/><path class="st0" d="M1937.8 534l85.1-35.7 85.1 42zM2086 583l179.4-51.3L2445 583z"/><path class="st0" d="M2445 503l-215.2 47.3s301.2 2.3 298.2 0-83-47.3-83-47.3z"/><path class="st0" d="M2520 511.3l-94 29 220 33.7z"/><path class="st0" d="M2803 550.3L2577 574h436z"/><path class="st0" d="M2848 531.7L2719 594h298z"/><path class="st0" d="M2939 527.2L2795 610l288-8z"/><path class="st0" d="M3007 498.3C2997 505 2853 610 2853 610s351 23 350 14-196-125.7-196-125.7z"/><path class="st0" d="M3040 486c-3 2-71.2 56.7-71.2 56.7H3125l-85-56.7z"/><path class="st0" d="M3083 494l-55 25.3h219z"/><path class="st0" d="M3163.6 479.7l-51.6 60.6h184z"/><path class="st0" d="M3176 470l-15.5 24 86.5 4.3z"/><path class="st0" d="M3237 456.5l-59.6 29.5H3296z"/><path class="st0" d="M3267.5 452l-48.2 29 107-1.9z"/><path class="st0" d="M3296 452l-54 42h78z"/><path class="st0" d="M3308 456.5l-50 62.8s217 50.9 214 49.3-164-112.1-164-112.1z"/><path class="st0" d="M3370 479.7c-4.3 3.2-91 86.5-89 88.9s232 5.4 232 5.4l-143-94.3z"/><path class="st0" d="M3499 552l-57.5 41.5h321z"/><path class="st0" d="M3802.5 552s-227.5 64-226 63 339.5-15.5 339.5-15.5L3802.5 552z"/><path class="st0" d="M3674.5 552s-139.5 38-137 38H3814l-139.5-38zM4006 565.5L3852.5 590l234.5 19z"/><path class="st0" d="M4078.5 590s-48.5 34-45 34H4194l-115.5-34z"/><path class="st0" d="M4157.5 607l-25 11.5 61.5 5.5zM3835 556l-69 59.5 203.8-16zM1928 508.7h60.3v23H1928z"/></svg>