<svg id="Layer_1" xmlns="http://www.w3.org/2000/svg" viewBox="0 0 95 91.7"><style>.st0{fill:#fff}</style><path class="st0" d="M6 21.5C.4 29.6-1.1 39.8.7 49.4c.9 4.8 2.6 9.4 4.8 13.7 1 2.2 2.4 4.3 3.8 6.2 0 .5 1.2 1.6 1.5 2 .8.9 1.8 1.9 2.4 2.9 5.9 6.6 13.7 11.7 22 14.8 8 2.9 17.2 3.4 25.5 1.9 13.6-2.4 26.8-11.7 31.8-24.8C81 81 58.9 83.1 42.3 76.7c-8.8-3.7-16.2-8.9-22.5-16.1C13.6 53 9.4 44 8.5 34.1c-.6-7.1.6-14.4 3.9-20.8"/><path class="st0" d="M32.2 11.3c-5.6 8.1-5.8 18.8-2 27.6 3.7 8.6 10.4 15.1 18.6 19.4 12.6 6.3 29.9 4.6 39.8-5.8 2.8-2.9 5.2-6.5 6.4-10.3-9.6 13.9-29.2 14.2-42.8 6.2-14.4-8.7-24.6-28-15.1-44.1"/><path class="st0" d="M54.1 3.7c-9.5 13.9 4.2 31.3 19 32.2 5.3.3 10.6-1 14.6-4.6 2.1-1.9 3.2-4.3 4.8-6.6-6.2 8.8-19.4 7.1-27.3 1.8C57 20.9 51.7 9.4 56.8 0"/></svg>