<svg width="1358" height="1137" fill="none" xmlns="http://www.w3.org/2000/svg"><path fill="#fff" d="M0 0h1358v1137H0z"/><path d="M25 354V206.187L213 100v145.264L25 354z" fill="#417DA9" fill-opacity=".03"/><path d="M126 424.11v-214.8L399.033 55v211.097L126 424.11zm0 693v-214.8L399.033 748v211.097L126 1117.11z" fill="#417DA9" fill-opacity=".03"/><path d="M301 1119V946.746L520 823v169.284L301 1119zm432-231.89v-214.8L1006.03 518v211.097L733 887.11z" fill="#417DA9" fill-opacity=".03"/><path d="M914 662V422.823L1218 251v235.054L914 662zM729 341.801V201.087L914.282 100v138.288L729 341.801z" fill="#417DA9" fill-opacity=".03"/></svg>