<?xml version="1.0" encoding="utf-8"?>
<svg viewBox="0 0 260.5 60" xmlns="http://www.w3.org/2000/svg">
  <path d="M240.8 50.7c-5.7-4.1-16.3-6.8-28.4-6.8 0-3.3-6.1-6.1-15.5-8-.3-11.9-12.9-21.5-28.4-21.5-1 0-2.1.1-3.1.1-3.6-3.1-8.2-4.9-13.3-4.9-3 0-5.9.6-8.4 1.8-3.3-6.8-9-11.4-15.5-11.4-2.8 0-5.5.9-7.9 2.4C117.4.9 113.9 0 110.1 0c-8.7 0-16 4.7-17.9 11-12.2 2.2-21.5 7-25 12.8-20 1.2-35.4 9.8-35.4 20.2 0 1.1.2 2.1.5 3.1C12.2 50.6 0 55 0 60h256.4c0-3-5.6-6.5-15.6-9.3z" style="fill: rgb(254, 255, 228);"/>
</svg>