<?xml version="1.0" encoding="utf-8"?>
<!-- Generator: Adobe Illustrator 19.0.0, SVG Export Plug-In . SVG Version: 6.00 Build 0)  -->
<svg version="1.1"
	 id="Express" xmlns:sodipodi="http://sodipodi.sourceforge.net/DTD/sodipodi-0.dtd" xmlns:rdf="http://www.w3.org/1999/02/22-rdf-syntax-ns#" xmlns:cc="http://creativecommons.org/ns#" xmlns:dc="http://purl.org/dc/elements/1.1/" xmlns:svg="http://www.w3.org/2000/svg" xmlns:inkscape="http://www.inkscape.org/namespaces/inkscape" sodipodi:docname="expressjs-ar21.svg" inkscape:version="0.92.2 (5c3e80d, 2017-08-06)"
	 xmlns="http://www.w3.org/2000/svg" xmlns:xlink="http://www.w3.org/1999/xlink" x="0px" y="0px" viewBox="-245 367 120 60"
	 style="enable-background:new -245 367 120 60;" xml:space="preserve">
<style type="text/css">
	.st0{fill:#FFFFFF;}
</style>
<sodipodi:namedview  inkscape:cy="64" showgrid="false" guidetolerance="10" inkscape:zoom="1.84375" inkscape:cx="-2.1694915" bordercolor="#666666" pagecolor="#ffffff" borderopacity="1" objecttolerance="10" gridtolerance="10" id="namedview20" inkscape:current-layer="Express" inkscape:window-maximized="1" inkscape:window-y="-9" inkscape:window-x="-9" inkscape:window-height="1001" inkscape:window-width="1920" inkscape:pageopacity="0" inkscape:pageshadow="2">
	</sodipodi:namedview>
<title  id="title2">Artboard 12</title>
<g id="original-wordmark" transform="matrix(0.85101532,0,0,0.85101532,5.5198422,-24.472693)">
	<path id="path4" inkscape:connector-curvature="0" class="st0" d="M-247.4,509.1V482h1.5v4.3c0.2-0.2,0.3-0.4,0.5-0.6
		c1.2-2.5,3.8-4.2,6.6-4.1c3.4-0.1,6.1,1.1,7.7,4.1c2.1,3.8,2.2,8.3,0.3,12.1c-1.5,3.3-5.2,5-9.1,4.4c-2.5-0.2-4.7-1.7-5.9-3.9v10.8
		H-247.4z M-245.9,491.6c0.1,1.3,0.2,2.3,0.3,3.2c0.6,3.6,2.7,5.8,6.1,6.2c3.3,0.5,6.4-1.3,7.6-4.4c1.3-3.1,1.2-6.6-0.3-9.7
		c-1.2-2.8-4.1-4.4-7.1-3.9c-2.8,0.2-5.2,2.2-5.9,4.9C-245.5,489-245.7,490.3-245.9,491.6z"/>
	<path id="path6" inkscape:connector-curvature="0" class="st0" d="M-199.5,495.2c-0.5,3.9-3.8,6.9-7.7,7c-6.2,0.3-9.1-3.8-9.5-8.5
		c-0.3-2.6,0.1-5.2,1.2-7.5c1.6-3.3,5.1-5.2,8.7-4.7c3.4,0.3,6.3,2.7,7.1,6.1c0.3,1.5,0.5,3,0.7,4.5h-16.2c-0.3,4.3,2,7.7,5.3,8.5
		c4.1,1,7.5-0.8,8.8-4.6C-200.9,495.1-200.4,495-199.5,495.2z M-215.2,490.8h14.5c-0.1-4.6-2.9-7.9-6.8-7.9
		C-211.9,482.8-215,486-215.2,490.8z"/>
	<path id="path8" inkscape:connector-curvature="0" class="st0" d="M-196.5,495.3h1.4c0.1,2.1,1.4,4,3.3,4.9c2.4,1.1,5.2,1,7.6-0.2
		c1.3-0.6,2.1-1.9,2-3.4c0.1-1.4-0.8-2.6-2.1-3.1c-1.6-0.6-3.2-0.9-4.8-1.4c-1.7-0.5-3.3-1.1-4.8-1.8c-2.6-1.3-2.7-6.1,0.2-7.7
		c3-1.7,6.7-1.8,9.8-0.2c1.9,1,2.9,3.1,2.6,5.2h-1.2c0-0.1-0.1-0.1-0.1-0.2c-0.2-3.9-3.4-5.1-6.9-4.8c-1,0.1-2.1,0.4-3,0.9
		c-1.2,0.5-1.9,1.7-1.7,3c0,1.3,0.8,2.4,2,2.8c1.5,0.6,3.2,0.9,4.7,1.4c1.3,0.4,2.6,0.6,3.8,1c1.8,0.6,3,2.2,3.1,4.1
		c0.3,2.1-0.7,4.1-2.6,5c-3.3,1.9-8.8,1.4-11.3-1C-195.8,498.8-196.5,497.1-196.5,495.3z"/>
	<path id="path10" inkscape:connector-curvature="0" class="st0" d="M-162.7,487.9h-1.3c0-0.2-0.1-0.3-0.1-0.5
		c0-2.1-1.5-3.8-3.5-4.2c-1.8-0.5-3.8-0.4-5.6,0.3c-1.5,0.4-2.5,1.7-2.5,3.3c-0.1,1.5,1,2.8,2.4,3.2c2,0.6,4.1,1,6.1,1.6
		c0.7,0.2,1.3,0.4,1.9,0.6c2.6,0.9,4,3.8,3,6.4c-0.5,1.3-1.5,2.4-2.8,2.9c-2.9,1.3-6.1,1.3-9,0.1c-2.4-1-3.9-3.5-3.8-6.1h0.6h0.7
		c0.8,3.9,4.7,6.5,8.6,5.7c0.9-0.2,1.7-0.5,2.5-1c1.2-0.6,2-1.9,1.9-3.3c0.1-1.4-0.8-2.6-2.1-3.1c-1.6-0.6-3.2-0.9-4.8-1.4
		c-1.7-0.5-3.3-1-4.9-1.8c-2.5-1.2-2.7-6.1,0.2-7.6c3.1-1.8,6.8-1.8,9.9-0.1C-163.4,483.8-162.4,485.8-162.7,487.9z"/>
	<path id="path12" inkscape:connector-curvature="0" class="st0" d="M-249.8,501.8c-1.1,0.4-2.3-0.1-2.8-1.1
		c-1.6-2.4-3.4-4.8-5.2-7.2l-0.8-1c-2.1,2.8-4.1,5.4-6,8.2c-0.5,1-1.7,1.4-2.7,1.1l7.7-10.4l-7.2-9.4c1.1-0.4,2.3,0,2.9,1
		c1.7,2.4,3.5,4.8,5.4,7.2c1.9-2.4,3.7-4.8,5.4-7.2c0.5-1,1.7-1.4,2.7-1l-2.8,3.7c-1.3,1.6-2.5,3.3-3.8,4.9c-0.4,0.4-0.4,1-0.1,1.4
		c0,0,0.1,0.1,0.1,0.1C-254.6,495.3-252.2,498.5-249.8,501.8z"/>
	<path id="path14" inkscape:connector-curvature="0" class="st0" d="M-217,481.9v1.4c-4-0.3-7.4,2.8-7.7,6.8c0,0.2,0,0.5,0,0.7
		c0,3.3,0,6.6,0,9.9c0,0.3,0,0.7,0,1.1h-1.4V482h1.4v4.1C-223,483.1-220.3,482-217,481.9z"/>
	<path id="path16" inkscape:connector-curvature="0" class="st0" d="M-285.8,491.2c0.2-1,0.3-2.1,0.6-3.1c1.7-6.2,8.8-8.7,13.6-4.9
		c2.8,2.2,3.6,5.4,3.4,9h-16c-0.3,6.4,4.3,10.2,10.2,8.2c1.9-0.7,3.4-2.3,3.9-4.3c0.3-1,0.8-1.2,1.8-0.9c-0.3,2.5-1.7,4.7-3.9,5.9
		c-3.6,2-8,1.4-11-1.4c-1.4-1.6-2.3-3.6-2.5-5.8c0-0.3-0.1-0.7-0.2-1C-285.8,492.4-285.8,491.8-285.8,491.2z M-284.1,490.8h14.5
		c-0.1-4.6-3-7.9-6.9-7.9C-280.8,482.8-283.9,486-284.1,490.8L-284.1,490.8z"/>
</g>
</svg>
