<svg xmlns="http://www.w3.org/2000/svg" viewBox="0 0 84.9 84.8"><path d="M83.4 38.7L46.3 1.6c-2.2-2.1-5.6-2.1-7.8 0l-7.7 7.7 9.8 9.8c2.3-.8 4.9-.3 6.7 1.6 1.8 1.8 2.3 4.4 1.5 6.7l9.4 9.4c2.3-.8 4.9-.3 6.7 1.5 2.5 2.5 2.5 6.7 0 9.2s-6.7 2.5-9.2 0c-1.9-1.9-2.4-4.7-1.4-7.1l-8.8-8.8v23.1c.6.3 1.2.7 1.7 1.2 2.5 2.5 2.5 6.7 0 9.2s-6.7 2.5-9.2 0-2.5-6.7 0-9.2c.6-.6 1.4-1.1 2.1-1.4V31.3c-.8-.3-1.5-.8-2.1-1.4-1.9-1.9-2.4-4.8-1.4-7.1L27 13.2 1.6 38.5c-2.1 2.1-2.1 5.6 0 7.7l37.1 37.1c2.1 2.1 5.6 2.1 7.7 0l37-36.8c2.1-2.2 2.1-5.6 0-7.8z" fill="#fff"/></svg>