<?xml version="1.0" encoding="utf-8"?>
<svg version="1.1" id="Layer_1" x="0" y="0" viewBox="0 0 3000 455" xmlns="http://www.w3.org/2000/svg">
  <style>.st0{fill:#2c4b77}.st1{fill:#48689b}.st2{fill:#3e5c91}</style>
  <path class="st0" d="M0 304.3h3000v46.6H0zM641.3 230.8H2754v73.5H641.3z" style="fill: rgb(211, 206, 110);"/>
  <path class="st0" d="M2674.3 269.4H3000v51h-325.7z"/>
  <path id="XMLID_83_" class="st1" d="M1737.4 61.4l-210.6 170.2 450.5.2z" style="fill: rgb(232, 226, 124);"/>
  <path id="XMLID_82_" class="st2" d="M1696.3 231.8l40.3-170.5-209.8 170.3z" style="fill: rgb(211, 206, 110);"/>
  <path id="XMLID_80_" class="st1" d="M1250.4 19L1605 248.8l-592.2.2z" style="fill: rgb(242, 236, 130);"/>
  <path id="XMLID_79_" class="st2" d="M1196 248.9L1250.4 19l-237.6 230z" style="fill: rgb(211, 206, 110);"/>
  <path id="XMLID_77_" class="st1" d="M846.1 90.7l423.1 163.9-706.5.1z" style="fill: rgb(227, 222, 122);"/>
  <path id="XMLID_55_" class="st1" d="M2531.6 16.1L2886.2 246l-592.2.1z" style="fill: rgb(233, 228, 141);"/>
  <path id="XMLID_54_" class="st2" d="M2477.2 246.1l54.4-230-237.6 230z" style="fill: rgb(211, 206, 110);"/>
  <path id="XMLID_76_" class="st2" d="M781.2 254.7l64.9-164-283.4 164z" style="fill: rgb(211, 206, 110);"/>
  <path id="XMLID_56_" class="st1" d="M2047.6 105.4l395.9 163.9-661.1.1z" style="fill: rgb(226, 226, 150);"/>
  <path id="XMLID_53_" class="st2" d="M1986.9 269.4l60.7-164-265.2 164z" style="fill: rgb(211, 206, 110);"/>
  <path id="XMLID_62_" class="st1" d="M2798.9 144L3000 269.3l-335.8.1z"/>
  <path id="XMLID_57_" class="st2" d="M2768.1 269.4l30.8-125.4-134.7 125.4z"/>
  <path id="XMLID_52_" class="st1" d="M572 134.1L361.5 304.3l450.4.2z" style="fill: rgb(234, 230, 136);"/>
  <path id="XMLID_51_" class="st2" d="M530.9 304.5L571.3 134 361.5 304.3z" style="fill: rgb(195, 190, 94);"/>
  <path id="XMLID_64_" class="st1" d="M264.1 134.1L0 304.3l565 .2z" style="fill: rgb(239, 233, 128);"/>
  <path id="XMLID_63_" class="st2" d="M212.6 304.5L263.2 134 0 304.3z" style="fill: rgb(192, 187, 101);"/>
  <path class="st0" d="M0 349.9h3000V455H0z" style="fill: rgb(226, 222, 116);"/>
</svg>