<?xml version="1.0" encoding="utf-8"?>
<svg version="1.1" id="Layer_1" x="0" y="0" viewBox="1194 169 3000 455" xmlns="http://www.w3.org/2000/svg">
  <style>.st0{fill:#1f3347}.st1{fill:#1c2e3d}</style>
  <path class="st0" d="M4022 368l171.6 25.3.4 202.2-489-2.3 7-180.2z" style="fill: rgb(211, 206, 110);"/>
  <path class="st1" d="M4022 368l-194 67.7-116-22.7z" style="fill: rgb(211, 206, 110);"/>
  <path d="M1511.3 582.8l79.2-30.6H4194v43.3z" style="fill: rgb(211, 206, 110);"/>
  <path class="st0" d="M4193.6 573.8L3881.5 319l-676.9 271.8 989.4 4.7z" style="fill: rgb(233, 227, 118);"/>
  <path class="st0" d="M2470 575.6c5.8 0 444-180.7 444-180.7l528.4 156.4-972.4 24.3z" style="fill: rgb(217, 211, 105);"/>
  <path class="st0" d="M3162.5 504.5l211.4-98.4 279.6 98.4zM2322.7 569.5l269.9-152.8 256.7 152.8z" style="fill: rgb(227, 222, 121);"/>
  <path class="st0" d="M3259 522.6c5.4-.4 237.6-163.1 237.6-163.1l277.7 163.1H3259zM2051.3 518.6l340.2-72.9 343.8 72.9z" style="fill: rgb(233, 228, 124);"/>
  <path class="st1" d="M2391.5 445.7l-278.8 72.9h-61.4z" style="fill: rgb(211, 206, 110);"/>
  <path class="st0" d="M1805.3 547l399.4-104.6L2540 547z" style="fill: rgb(232, 226, 114);"/>
  <path class="st1" d="M2914 394.9l-317.4 179.3-126.6 1.4zM2592.6 416.7l-201.1 152.8h-68.8zM2204.7 442.4L1906.9 547h-101.6zM3373.9 406.1l-142.1 98.4h-69.3z" style="fill: rgb(211, 206, 110);"/>
  <path class="st0" d="M1511.3 582.8L1972 425l312 161.5z" style="fill: rgb(211, 206, 110);"/>
  <path class="st1" d="M3496.6 359.4l-158.4 163.2H3259z" style="fill: rgb(211, 206, 110);"/>
  <path class="st0" d="M1972 583.4c6-.2 261.9-90.3 261.9-90.3l306.1 90.3h-568z" style="fill: rgb(232, 226, 123);"/>
  <path class="st1" d="M2233.9 493.1l-174.6 90.3H1972z" style="fill: rgb(195, 191, 112);"/>
  <path class="st0" d="M2908 553c27.9-11 361.7-158.1 361.7-158.1L3417 553h-509z" style="fill: rgb(227, 221, 114);"/>
  <path class="st1" d="M3269.7 394.9L2989 553h-81zM3881.5 319L3374 591.6l-169.4-.8zM1972 425l-356 158.3-104.7-.5z" style="fill: rgb(211, 206, 110);"/>
</svg>